<svg width="31" height="31" viewBox="0 0 31 31" fill="none" xmlns="http://www.w3.org/2000/svg">
<rect width="31" height="31" rx="4" fill="#D9D9D9" fill-opacity="0.4"/>
<g clip-path="url(#clip0_90_2178)">
<path fill-rule="evenodd" clip-rule="evenodd" d="M10.1583 23.5917L8.99167 22.8334C8.58841 22.5628 8.20417 22.2648 7.84167 21.9417C7.47162 21.6241 7.12099 21.2846 6.79167 20.925C6.62242 20.7693 6.46111 20.6052 6.30833 20.4334C5.98333 20.05 6.075 20.0917 6.23333 19.9334C6.36842 19.7798 6.51316 19.6351 6.66667 19.5L8.75 17.3417L9.40833 16.7167C9.48348 16.7167 9.55554 16.6868 9.60868 16.6337C9.66182 16.5806 9.69167 16.5085 9.69167 16.4334C9.69167 16.3582 9.66182 16.2861 9.60868 16.233C9.55554 16.1799 9.48348 16.15 9.40833 16.15C9.28153 16.1545 9.15806 16.1919 9.05 16.2584C8.78398 16.4289 8.53055 16.6182 8.29167 16.825L5.95833 18.7334C5.66136 18.9467 5.39983 19.2054 5.18333 19.5C5.03781 19.7182 4.97569 19.9815 5.00833 20.2417C5.05416 20.4607 5.14496 20.6679 5.275 20.85C5.49881 21.1528 5.7529 21.4321 6.03333 21.6834C6.41734 22.0413 6.82073 22.378 7.24167 22.6917C7.66998 22.9988 8.11819 23.2772 8.58333 23.525C10.325 24.4834 10.1833 24.675 10.4417 24.4167C10.5067 24.3576 10.5483 24.2772 10.559 24.19C10.5697 24.1028 10.5488 24.0147 10.5 23.9417C10.4039 23.8089 10.2888 23.6909 10.1583 23.5917Z" fill="#020202"/>
<path fill-rule="evenodd" clip-rule="evenodd" d="M24.7501 13.0912C24.4642 12.2475 23.9659 11.4916 23.3033 10.8961C22.6408 10.3007 21.8361 9.88571 20.9668 9.69119C20.2805 9.53888 19.5843 9.43584 18.8834 9.38286C17.5668 9.25786 16.1334 9.18286 15.8334 9.18286C15.7472 9.18286 15.6646 9.2171 15.6036 9.27805C15.5427 9.339 15.5084 9.42167 15.5084 9.50786C15.5073 9.55085 15.5149 9.59363 15.5308 9.63358C15.5468 9.67353 15.5706 9.70981 15.6011 9.74022C15.6315 9.77064 15.6678 9.79453 15.7077 9.81046C15.7477 9.82639 15.7904 9.83401 15.8334 9.83286C16.1584 9.83286 17.5501 9.94953 18.8334 10.1162C19.4847 10.191 20.1305 10.3079 20.7668 10.4662C21.4744 10.6523 22.1235 11.0142 22.6538 11.5183C23.1841 12.0223 23.5784 12.6523 23.8001 13.3495C24.0016 14.0604 24.0311 14.8089 23.8862 15.5334C23.7413 16.2579 23.4261 16.9375 22.9668 17.5162C22.5494 18.0276 22.0263 18.4427 21.4334 18.7329C20.8108 19.0468 20.1573 19.2954 19.4834 19.4745C18.5003 19.7575 17.4933 19.95 16.4751 20.0495C15.4453 20.1541 14.4095 20.1875 13.3751 20.1495C12.5001 20.1495 9.69175 19.8245 8.50842 19.6745L8.03342 19.6079C7.96126 19.5787 7.88058 19.5787 7.80842 19.6079C7.80842 19.6079 7.54175 20.0745 7.93342 20.1579L8.43342 20.2412C9.62509 20.4412 12.4501 20.8662 13.3418 20.9329C14.4117 21.0215 15.4865 21.0354 16.5584 20.9745C17.6405 20.9075 18.7143 20.7429 19.7668 20.4829C20.6747 20.2612 21.5471 19.9134 22.3584 19.4495C22.9289 19.1182 23.4298 18.6796 23.8334 18.1579C24.3767 17.4463 24.7431 16.6159 24.9025 15.735C25.0618 14.8541 25.0096 13.948 24.7501 13.0912Z" fill="#020202"/>
</g>
<defs>
<clipPath id="clip0_90_2178">
<rect width="20" height="20" fill="white" transform="translate(5 7)"/>
</clipPath>
</defs>
</svg>
