<svg width="26" height="26" viewBox="0 0 26 26" fill="none" xmlns="http://www.w3.org/2000/svg">
<g clip-path="url(#clip0_99_2552)">
<path d="M2.40672 10.9487C2.75252 11.6219 3.1565 12.2635 3.61431 12.866C4.07343 13.4734 4.59137 14.0341 5.16088 14.5397C6.41343 15.7138 7.92208 16.5806 9.56734 17.0712C9.86201 17.191 10.1757 16.9468 10.1321 16.6319C10.1089 16.4643 9.98583 16.3278 9.8216 16.2874C8.38921 15.6764 7.10622 14.7621 6.06124 13.6075C5.58251 13.1072 5.13672 12.5764 4.72657 12.0185C4.40883 11.6161 4.3135 11.5419 4.03801 11.1711C3.29657 10.3025 2.14196 10.4508 2.40672 10.9487Z" fill="#040E1A"/>
<path d="M23.2319 3.35378C23.0631 3.21338 22.818 3.21338 22.6493 3.35378C22.4839 3.50859 22.4839 3.77097 22.6493 3.92578C23.4757 4.66775 23.6499 5.89625 23.0623 6.83875C21.9969 8.24037 20.4563 9.20464 18.73 9.55044C16.4693 10.0287 14.1661 10.2773 11.8554 10.292C9.58718 10.3677 7.3255 10.0082 5.19263 9.2327C4.88237 9.09241 4.58467 8.9259 4.30289 8.7348C4.02491 8.58422 3.76242 8.40688 3.51899 8.20516C2.24792 7.14599 1.90894 6.26675 2.2373 5.44049C2.81992 3.96814 4.97023 2.87711 6.76033 2.37921C7.68354 2.0749 8.62453 1.82725 9.57797 1.63778C10.5302 1.46813 11.4928 1.36196 12.4592 1.32004C13.9523 1.2507 15.4484 1.31809 16.9293 1.52121C18.414 1.72239 19.8804 2.04121 21.3146 2.47454C21.5796 2.56024 21.8379 2.32689 21.7796 2.05454C21.7525 1.92811 21.6601 1.82584 21.537 1.78609C20.075 1.27562 18.5727 0.889411 17.0458 0.63147C15.5201 0.373203 13.9747 0.249161 12.4274 0.260753C11.4091 0.279603 10.3934 0.368111 9.3873 0.52552C8.38359 0.679353 7.38974 0.891578 6.41073 1.16111C4.2393 1.76485 1.68653 3.16311 0.966226 4.92147C0.623242 5.79529 0.709584 6.77939 1.19925 7.58019C1.5561 8.12846 1.99973 8.61499 2.51268 9.0208C2.98935 9.42337 3.47663 9.85768 3.57197 9.9424C3.91224 10.1343 4.26628 10.3008 4.63125 10.4403C6.47043 11.1185 8.4123 11.4767 10.3725 11.4995C13.2482 11.5515 16.1184 11.2273 18.9101 10.5356C20.7172 10.0616 22.3453 9.06706 23.592 7.67552C23.7158 7.52375 23.8125 7.35182 23.878 7.16711C24.3653 5.94901 24.6513 4.34947 23.2319 3.35378Z" fill="#040E1A"/>
<path d="M23.4966 8.62892C23.2093 9.45442 22.783 10.2247 22.2362 10.9064C21.8521 11.5082 21.4161 12.0753 20.9332 12.6012C20.4463 13.1356 19.9186 13.6314 19.3549 14.0841C18.0276 15.1663 16.5173 16.0022 14.8955 16.5522C14.7665 16.5937 14.6669 16.6971 14.6306 16.8277C14.5943 16.9582 14.5565 16.7747 14.5142 16.7747C14.2609 16.7482 14.0442 16.9548 14.0586 17.209C13.9845 18.0034 14.0586 19.1792 14.0586 20.1644C14.0525 20.5317 13.9657 20.8933 13.8044 21.2235C13.6798 21.419 13.5342 21.6001 13.3702 21.7638C12.904 22.2405 12.3109 22.7171 11.8977 23.1091L11.3576 23.7234L11.2728 22.5158C11.1775 21.4566 11.0822 20.3974 11.0397 19.3381C11.0397 18.6178 10.9762 17.9081 10.9656 17.2195C10.9717 17.0245 10.8214 16.8602 10.6266 16.8488C10.4258 16.8427 10.2567 16.9978 10.2453 17.1984C10.1712 18.0988 10.1182 19.0097 10.0864 19.9101C10.0545 20.8105 9.99104 21.552 9.98053 22.5053V24.2001C9.98053 24.4225 9.87458 24.8463 9.90632 25.037C9.92647 25.2316 10.0168 25.4125 10.1606 25.5454C10.3685 25.7402 10.6715 25.7941 10.9339 25.6831C11.2263 25.5755 11.4958 25.4138 11.7283 25.2064C12.1315 24.821 12.51 24.4106 12.8617 23.9777C13.2112 23.5645 13.7939 23.0455 14.2387 22.5265C14.457 22.2697 14.6453 21.9889 14.8002 21.6897C15.009 21.2083 15.1172 20.6891 15.1179 20.1644C15.1179 19.211 14.9484 18.12 14.9484 17.3255C15.0181 17.3417 15.0906 17.3417 15.1603 17.3255C16.9493 16.9014 18.642 16.143 20.1495 15.0905C20.8099 14.6291 21.4173 14.0963 21.9608 13.5015C22.402 13.0102 22.7957 12.4783 23.1365 11.9127C23.4331 12.1216 23.6675 12.4071 23.8145 12.7389C24.1477 13.5806 24.1851 14.5107 23.9204 15.3765C23.6355 16.1035 23.1553 16.7377 22.5328 17.209C21.9036 17.7311 21.1861 18.1365 20.4142 18.4059C18.9083 19.0904 17.1397 18.8158 15.9123 17.7068C15.6769 17.493 15.2984 17.6142 15.2309 17.925C15.2076 18.0321 15.228 18.1443 15.2873 18.2365C16.6673 19.7809 18.8461 20.3339 20.7956 19.6347C21.7698 19.3759 22.6768 18.9099 23.4543 18.2682C24.2647 17.6086 24.8558 16.7184 25.1491 15.7154C25.3681 14.5547 25.1929 13.3542 24.6512 12.3046C24.3838 11.8531 23.9946 11.4861 23.5285 11.2454C24.1 10.3839 24.4126 9.37663 24.4288 8.34292C24.397 7.86625 23.8568 8.05692 23.4966 8.62892Z" fill="#040E1A"/>
</g>
<defs>
<clipPath id="clip0_99_2552">
<rect width="26" height="26" fill="white"/>
</clipPath>
</defs>
</svg>
