<svg width="52" height="53" viewBox="0 0 52 53" fill="none" xmlns="http://www.w3.org/2000/svg">
<g filter="url(#filter0_d_114_549)">
<path fill-rule="evenodd" clip-rule="evenodd" d="M38.6648 40C38.847 40.0001 39.0221 39.9291 39.1528 39.8021C39.2835 39.6751 39.3595 39.5022 39.3648 39.32C39.4942 37.3756 39.3461 35.4227 38.9247 33.52C38.7456 32.6965 38.505 31.8875 38.2048 31.1C37.9059 30.3125 37.5448 29.5501 37.1248 28.82C36.1746 27.2052 34.8595 25.8353 33.2847 24.82C34.2727 23.9456 35.0583 22.8664 35.5868 21.6575C36.1152 20.4486 36.3739 19.1391 36.3448 17.82C36.484 16.0996 36.3284 14.3681 35.8848 12.7C35.5063 11.5736 34.9081 10.5335 34.1247 9.64002C34.0613 9.57409 33.9852 9.52163 33.901 9.4858C33.8168 9.44998 33.7263 9.43151 33.6347 9.43151C33.5432 9.43151 33.4527 9.44998 33.3685 9.4858C33.2843 9.52163 33.2082 9.57409 33.1447 9.64002C33.0023 9.75724 32.9119 9.92594 32.8932 10.1095C32.8745 10.293 32.9289 10.4764 33.0448 10.62C33.8442 11.5777 34.3755 12.7302 34.5848 13.96C34.746 15.255 34.746 16.565 34.5848 17.86C34.5665 19.4509 34.0263 20.9917 33.047 22.2456C32.0678 23.4994 30.7038 24.3969 29.1647 24.8C27.6068 25.2198 25.9743 25.2832 24.3885 24.9854C22.8026 24.6876 21.3043 24.0364 20.0047 23.08C19.1137 22.3537 18.4706 21.3682 18.1647 20.26C17.7773 19.102 17.6476 17.8734 17.7847 16.66C17.9595 14.9068 18.5491 13.2203 19.5047 11.74C20.4434 10.3003 21.8598 9.23799 23.5047 8.74002C24.7641 8.35875 26.0693 8.15018 27.3847 8.12002C28.6793 8.09332 29.9656 8.33153 31.1647 8.82002C31.3106 8.88633 31.4769 8.89197 31.6269 8.83571C31.7769 8.77945 31.8984 8.66589 31.9647 8.52002C32.0311 8.37415 32.0367 8.20792 31.9804 8.05789C31.9242 7.90786 31.8106 7.78633 31.6647 7.72002C30.3335 7.08086 28.8811 6.73312 27.4047 6.70002C25.951 6.66863 24.4993 6.82321 23.0847 7.16002C21.0463 7.68866 19.2523 8.90351 18.0047 10.6C16.776 12.2928 15.9671 14.2533 15.6447 16.32C15.4106 17.8739 15.5337 19.4608 16.0047 20.96C16.4475 22.5456 17.3868 23.9475 18.6847 24.96L19.1247 25.24C17.2816 26.0932 15.675 27.384 14.4447 29C13.6181 30.0845 12.9823 31.3019 12.5647 32.6C12.1635 33.8971 11.9415 35.2428 11.9047 36.6C11.7908 37.5825 11.7374 38.571 11.7447 39.56C11.7471 40.0853 11.8631 40.6038 12.0847 41.08C12.165 41.2225 12.2968 41.3288 12.453 41.3771C12.6092 41.4255 12.778 41.4122 12.9247 41.34C12.9971 41.3021 13.0613 41.2503 13.1136 41.1875C13.1659 41.1247 13.2053 41.0522 13.2294 40.9741C13.2536 40.896 13.2621 40.814 13.2544 40.7326C13.2467 40.6512 13.2231 40.5722 13.1847 40.5C13.0737 40.0806 13.0737 39.6395 13.1847 39.22C13.3247 38.32 13.6247 37.36 13.7447 36.82C13.9569 35.661 14.2921 34.5279 14.7447 33.44C15.1516 32.3662 15.6747 31.3401 16.3047 30.38C17.4482 28.6462 18.9915 27.2127 20.8047 26.2C23.6529 27.492 26.8751 27.6983 29.8647 26.78C30.7182 26.4997 31.5317 26.1098 32.2847 25.62C33.7122 27.0224 34.7999 28.7327 35.4647 30.62C35.9447 31.72 36.3847 32.86 36.7647 34C37.3893 35.7243 37.8056 37.517 38.0048 39.34C38.0143 39.512 38.0869 39.6743 38.2087 39.7961C38.3305 39.9178 38.4928 39.9904 38.6648 40Z" fill="#040E1A"/>
<path fill-rule="evenodd" clip-rule="evenodd" d="M2.48477 12.56C2.47164 12.6529 2.47164 12.7471 2.48477 12.84C2.53281 12.9608 2.62005 13.062 2.73249 13.1273C2.84492 13.1926 2.97603 13.2182 3.10477 13.2C3.86477 13.08 3.62477 12.38 3.64477 11.56C3.73605 9.49754 3.93633 7.44133 4.24477 5.40001C4.31021 4.62314 4.47143 3.85733 4.72477 3.12001C4.77717 2.98812 4.85816 2.86949 4.96191 2.77266C5.06566 2.67583 5.18959 2.6032 5.32477 2.56001C6.14944 2.39407 6.98489 2.28714 7.82477 2.24001C8.45245 2.12031 9.08704 2.04015 9.72477 2.00001H14.4448C14.6237 2.0003 14.7959 1.93207 14.9261 1.80932C15.0563 1.68658 15.1345 1.51864 15.1448 1.34001C15.1448 1.15436 15.071 0.976312 14.9397 0.845037C14.8085 0.713761 14.6304 0.640011 14.4448 0.640011C12.8648 0.560011 11.3248 0.260011 9.74477 0.160011C9.03327 0.0932422 8.3174 0.0865518 7.60477 0.140011C6.60729 0.109332 5.6092 0.176318 4.62477 0.340011C4.1722 0.471932 3.75622 0.706632 3.4093 1.0258C3.06237 1.34497 2.79388 1.73998 2.62477 2.18001C2.25574 3.14641 2.04633 4.16639 2.00477 5.20001C1.97375 7.34581 2.09405 9.49113 2.36477 11.62C2.38481 11.9356 2.42489 12.2495 2.48477 12.56Z" fill="#C98D34"/>
<path fill-rule="evenodd" clip-rule="evenodd" d="M14.5848 46H9.84477C9.22706 45.9582 8.61254 45.8781 8.00477 45.76C7.15828 45.7129 6.31619 45.6059 5.48477 45.44C5.34982 45.3948 5.2272 45.3189 5.12655 45.2183C5.02591 45.1176 4.94999 44.995 4.90477 44.86C4.64066 44.1316 4.47257 43.3719 4.40477 42.6C4.12183 40.5574 3.94825 38.5012 3.88477 36.44C3.94264 36.0153 3.94264 35.5847 3.88477 35.16C3.88477 34.98 2.86477 34.5 2.68477 35.44L2.56477 36.38C2.27178 38.5071 2.13808 40.6531 2.16477 42.8C2.1871 43.8303 2.37621 44.8502 2.72477 45.82C2.89254 46.2609 3.16059 46.6566 3.50771 46.976C3.85484 47.2953 4.27151 47.5295 4.72477 47.66C5.70856 47.8303 6.70664 47.904 7.70477 47.88C8.4239 47.93 9.14564 47.93 9.86477 47.88C11.4448 47.76 12.9848 47.48 14.5648 47.4C14.7504 47.4 14.9285 47.3263 15.0597 47.195C15.191 47.0637 15.2648 46.8857 15.2648 46.7C15.2648 46.5144 15.191 46.3363 15.0597 46.2051C14.9285 46.0738 14.7504 46 14.5648 46H14.5848Z" fill="#C98D34"/>
<path fill-rule="evenodd" clip-rule="evenodd" d="M37.4248 2.00002C39.0048 2.10002 40.5848 2.00002 42.1648 2.00002C42.7946 2.02031 43.4225 2.08043 44.0448 2.18002C44.8912 2.22721 45.7333 2.33414 46.5648 2.50002C46.6969 2.5445 46.8175 2.61783 46.9178 2.71468C47.0182 2.81154 47.0957 2.9295 47.1448 3.06002C47.4084 3.79547 47.5764 4.56174 47.6448 5.34002C47.9723 7.8074 48.1593 10.2914 48.2048 12.78C48.2048 12.96 49.2248 13.42 49.4048 12.5L49.5248 11.56C49.791 9.42426 49.8979 7.27165 49.8448 5.12002C49.8227 4.09619 49.6336 3.08284 49.2848 2.12002C49.1182 1.67628 48.8509 1.27728 48.5038 0.954505C48.1567 0.631726 47.7394 0.393983 47.2848 0.260022C46.2991 0.106973 45.302 0.0400537 44.3048 0.0600216C43.5853 0.0200319 42.8642 0.0200319 42.1448 0.0600216C40.5648 0.180022 39.0248 0.460022 37.4448 0.560022C37.2644 0.560022 37.0914 0.631664 36.9639 0.759189C36.8364 0.886714 36.7648 1.05967 36.7648 1.24002C36.7536 1.33414 36.7622 1.42956 36.7901 1.52015C36.8179 1.61073 36.8644 1.6945 36.9266 1.76606C36.9887 1.83762 37.0652 1.8954 37.1509 1.93569C37.2367 1.97598 37.33 1.9979 37.4248 2.00002Z" fill="#C98D34"/>
<path fill-rule="evenodd" clip-rule="evenodd" d="M49.6448 36.3401C49.6448 35.5001 49.5448 34.6601 48.8448 34.7801C48.1448 34.9001 48.3248 35.4801 48.3048 36.4001C48.2351 38.4616 48.0548 40.5179 47.7648 42.5601C47.7014 43.3372 47.5401 44.1033 47.2848 44.8401C47.2349 44.9735 47.1548 45.0935 47.0507 45.1907C46.9466 45.2878 46.8213 45.3595 46.6848 45.4001C45.8617 45.5757 45.0255 45.6828 44.1848 45.7201C43.5558 45.8196 42.9213 45.8798 42.2848 45.9001H37.5648C37.4643 45.8829 37.3614 45.8879 37.263 45.9146C37.1647 45.9414 37.0734 45.9893 36.9955 46.055C36.9176 46.1207 36.855 46.2026 36.8121 46.2951C36.7691 46.3875 36.7469 46.4881 36.7469 46.5901C36.7469 46.692 36.7691 46.7926 36.8121 46.885C36.855 46.9775 36.9176 47.0594 36.9955 47.1251C37.0734 47.1908 37.1647 47.2387 37.263 47.2655C37.3614 47.2922 37.4643 47.2972 37.5648 47.2801C39.1448 47.3801 40.6848 47.6601 42.2648 47.7801C42.9776 47.8201 43.692 47.8201 44.4048 47.7801C45.4021 47.8007 46.3992 47.7338 47.3848 47.5801C47.8381 47.4433 48.254 47.2046 48.6007 46.8822C48.9473 46.5598 49.2156 46.1622 49.3848 45.7201C49.7336 44.7572 49.9228 43.7439 49.9448 42.7201C49.9927 40.589 49.8925 38.4572 49.6448 36.3401Z" fill="#C98D34"/>
</g>
<defs>
<filter id="filter0_d_114_549" x="0" y="0" width="52.0048" height="53" filterUnits="userSpaceOnUse" color-interpolation-filters="sRGB">
<feFlood flood-opacity="0" result="BackgroundImageFix"/>
<feColorMatrix in="SourceAlpha" type="matrix" values="0 0 0 0 0 0 0 0 0 0 0 0 0 0 0 0 0 0 127 0" result="hardAlpha"/>
<feOffset dy="3"/>
<feGaussianBlur stdDeviation="1"/>
<feComposite in2="hardAlpha" operator="out"/>
<feColorMatrix type="matrix" values="0 0 0 0 0 0 0 0 0 0 0 0 0 0 0 0 0 0 0.59 0"/>
<feBlend mode="normal" in2="BackgroundImageFix" result="effect1_dropShadow_114_549"/>
<feBlend mode="normal" in="SourceGraphic" in2="effect1_dropShadow_114_549" result="shape"/>
</filter>
</defs>
</svg>
