<svg width="35" height="35" viewBox="0 0 35 35" fill="none" xmlns="http://www.w3.org/2000/svg">
<g clip-path="url(#clip0_85_2010)">
<path fill-rule="evenodd" clip-rule="evenodd" d="M20.4167 32.7979C17.7771 32.8708 14.5104 32.6229 11.3604 32.4625C8.64793 32.3312 4.06877 32.4625 1.61877 32.0104C1.5101 32.0024 1.40221 32.0339 1.31495 32.0992C1.22769 32.1644 1.16693 32.259 1.14386 32.3655C1.12079 32.472 1.13695 32.5832 1.18938 32.6788C1.2418 32.7743 1.32696 32.8476 1.42918 32.8854C3.60893 33.4262 5.82742 33.7967 8.0646 33.9937C12.194 34.2891 16.341 34.2305 20.4604 33.8187C20.5958 33.8129 20.7233 33.7536 20.8149 33.6537C20.9066 33.5539 20.9548 33.4218 20.949 33.2864C20.9432 33.151 20.8838 33.0235 20.784 32.9319C20.6842 32.8403 20.5521 32.7921 20.4167 32.7979Z" fill="#020202"/>
<path fill-rule="evenodd" clip-rule="evenodd" d="M1.35622 30.3625C1.35622 27.6208 1.72081 6.13959 1.67706 4.24375C1.67706 2.61042 2.04164 2.39167 3.28122 2.26042C10.0303 1.82414 16.7995 1.79492 23.552 2.17292C25.5791 2.34792 25.7395 3.00417 26.1916 8.10833C26.6437 13.2125 26.2791 13.7375 26.9646 13.7229C27.0239 13.721 27.0824 13.7075 27.1365 13.683C27.1906 13.6585 27.2394 13.6236 27.28 13.5803C27.3207 13.5369 27.3523 13.486 27.3733 13.4304C27.3942 13.3748 27.404 13.3156 27.4021 13.2563C27.4021 10.6896 27.2416 7.07292 26.9646 4.50625C26.7166 2.30417 26.0604 1.1375 23.6979 0.845837C16.8495 0.168281 9.95579 0.0755846 3.09164 0.568754C0.904139 0.81667 -0.0875274 1.8375 -2.7379e-05 4.375C-2.7379e-05 5.70209 0.218723 27.3583 0.335389 30.4646C0.348926 30.5999 0.415685 30.7244 0.520979 30.8105C0.573115 30.8532 0.633142 30.8852 0.697634 30.9046C0.762126 30.9241 0.829819 30.9307 0.896847 30.924C0.963876 30.9172 1.02893 30.8974 1.08829 30.8656C1.14765 30.8337 1.20016 30.7905 1.24282 30.7384C1.28547 30.6862 1.31744 30.6262 1.3369 30.5617C1.35636 30.4972 1.36293 30.4295 1.35622 30.3625Z" fill="#020202"/>
<path fill-rule="evenodd" clip-rule="evenodd" d="M5.94993 9.1292C7.1166 9.1292 11.9291 9.28962 13.8687 9.27503C15.1958 9.27503 20.8541 9.02712 21.3354 9.11462C21.4005 9.13185 21.4683 9.13609 21.5351 9.1271C21.6018 9.11811 21.6662 9.09605 21.7244 9.0622C21.7826 9.02834 21.8336 8.98335 21.8745 8.92979C21.9153 8.87623 21.9452 8.81515 21.9624 8.75003C21.9797 8.68492 21.9839 8.61705 21.9749 8.55029C21.9659 8.48354 21.9439 8.41921 21.91 8.36098C21.8762 8.30275 21.8312 8.25176 21.7776 8.21092C21.724 8.17008 21.663 8.14019 21.5979 8.12295C19.0292 7.78904 16.4439 7.59916 13.8541 7.5542C11.1654 7.55833 8.48202 7.79252 5.83327 8.2542C5.71723 8.26967 5.6121 8.3306 5.54099 8.42359C5.46988 8.51657 5.43863 8.634 5.4541 8.75003C5.46957 8.86607 5.5305 8.9712 5.62349 9.04231C5.71647 9.11341 5.8339 9.14467 5.94993 9.1292Z" fill="#C98D34"/>
<path fill-rule="evenodd" clip-rule="evenodd" d="M21.4957 14.3209C16.3631 13.7593 11.1846 13.7593 6.05197 14.3209C5.94781 14.3398 5.85359 14.3947 5.78575 14.476C5.71791 14.5573 5.68076 14.6598 5.68076 14.7657C5.68076 14.8715 5.71791 14.974 5.78575 15.0553C5.85359 15.1366 5.94781 15.1915 6.05197 15.2105C7.5103 15.3417 11.9728 15.6042 13.927 15.6188C15.502 15.6188 20.5186 15.4 21.452 15.3271C21.5245 15.3423 21.5994 15.3416 21.6716 15.325C21.7437 15.3083 21.8114 15.2762 21.8699 15.2308C21.9284 15.1854 21.9763 15.1278 22.0103 15.062C22.0443 14.9962 22.0636 14.9238 22.0668 14.8498C22.0701 14.7758 22.0571 14.702 22.029 14.6335C22.0008 14.565 21.9581 14.5034 21.9037 14.4531C21.8494 14.4028 21.7847 14.3649 21.7143 14.3421C21.6438 14.3192 21.5693 14.312 21.4957 14.3209Z" fill="#C98D34"/>
<path fill-rule="evenodd" clip-rule="evenodd" d="M5.92078 21.0583C7.37911 21.1749 11.8854 21.4374 13.7958 21.452C15.2541 21.452 20.402 21.2333 21.3208 21.1749C21.4562 21.1749 21.586 21.1212 21.6817 21.0254C21.7774 20.9297 21.8312 20.7999 21.8312 20.6645C21.8312 20.5291 21.7774 20.3993 21.6817 20.3036C21.586 20.2079 21.4562 20.1541 21.3208 20.1541C16.1882 19.5912 11.0096 19.5912 5.87703 20.1541C5.75713 20.1599 5.64444 20.2131 5.56376 20.302C5.48308 20.3909 5.44102 20.5082 5.44682 20.6281C5.45262 20.748 5.50581 20.8606 5.5947 20.9413C5.68358 21.022 5.80088 21.0641 5.92078 21.0583Z" fill="#C98D34"/>
<path fill-rule="evenodd" clip-rule="evenodd" d="M12.0749 29.3708C12.0171 29.3796 11.9616 29.3999 11.9118 29.4305C11.862 29.4612 11.8188 29.5014 11.7848 29.549C11.7508 29.5966 11.7267 29.6505 11.7139 29.7076C11.7011 29.7646 11.6999 29.8237 11.7103 29.8812C11.7103 30.3187 13.6207 30.6104 14.0728 30.625C14.2916 30.625 16.4791 30.625 16.5811 30.0562C16.6832 29.4875 14.4957 28.9479 14.1603 28.9187C13.4396 28.9069 12.726 29.0616 12.0749 29.3708Z" fill="#020202"/>
<path fill-rule="evenodd" clip-rule="evenodd" d="M34.9999 31.1062C34.8608 26.25 33.7084 21.4765 31.6166 17.0916C29.9832 13.7812 25.2582 13.5333 26.2499 19.6583C26.3812 20.4312 26.3957 23.7125 26.5562 24.5437C25.9513 24.1672 25.3115 23.8497 24.6457 23.5958C21.8312 22.575 20.1687 24.4562 21.8312 27.3291C22.9189 28.9839 24.2017 30.5017 25.652 31.85C25.652 33.5854 25.652 32.4916 25.7395 34.2416C25.7584 34.3458 25.8133 34.44 25.8946 34.5079C25.9759 34.5757 26.0784 34.6129 26.1843 34.6129C26.2902 34.6129 26.3927 34.5757 26.474 34.5079C26.5552 34.44 26.6101 34.3458 26.6291 34.2416C26.6051 33.5219 26.6197 32.8015 26.6728 32.0833C26.7034 31.7791 26.6531 31.4722 26.527 31.1937C25.3492 30.0139 24.2803 28.7302 23.3332 27.3583C21.7582 24.8791 22.1374 23.5521 26.5562 26.5562C26.9937 26.8625 27.3582 27.1541 27.8541 26.9646C28.3499 26.775 28.4228 26.1771 28.3353 25.5062C28.1749 24.2229 27.752 19.3812 27.752 18.4333C27.752 17.9666 27.752 16.5666 28.2624 16.4937C28.6624 16.513 29.0483 16.647 29.3742 16.8797C29.7 17.1125 29.952 17.4341 30.0999 17.8062C30.6971 18.9019 31.2185 20.0372 31.6603 21.2041C33.1187 25.0687 34.2999 32.1562 33.8187 34.125C33.7894 34.1928 33.7753 34.2661 33.7771 34.3399C33.779 34.4138 33.7969 34.4863 33.8295 34.5525C33.8621 34.6188 33.9087 34.6771 33.9661 34.7236C34.0235 34.7701 34.0903 34.8036 34.1619 34.8217C34.2334 34.8399 34.3081 34.8423 34.3807 34.8288C34.4533 34.8153 34.5221 34.7862 34.5824 34.7436C34.6426 34.7009 34.6929 34.6456 34.7297 34.5816C34.7666 34.5177 34.7891 34.4464 34.7957 34.3729C35.011 33.2982 35.0797 32.1993 34.9999 31.1062Z" fill="#020202"/>
</g>
<defs>
<clipPath id="clip0_85_2010">
<rect width="35" height="35" fill="white"/>
</clipPath>
</defs>
</svg>
