<svg width="393" height="440" viewBox="0 0 393 440" fill="none" xmlns="http://www.w3.org/2000/svg">
<g filter="url(#filter0_f_107_330)">
<rect x="46" y="70" width="300" height="300" rx="100" fill="#FBE9C2" fill-opacity="0.5"/>
</g>
<g filter="url(#filter1_i_107_330)">
<path fill-rule="evenodd" clip-rule="evenodd" d="M144.399 247.047C133.6 243.579 121.931 243.99 111.401 248.207C96.4188 254.004 92.5836 264.795 94.5464 272.822C92.8491 276.875 92.2934 281.316 92.9404 285.664C96.062 309.832 131.111 313.935 149.483 300.647C157.431 294.52 160.559 283.988 157.242 274.516C161.581 263.373 155.732 250.864 144.399 247.047ZM113.721 254.985C122.483 252.203 131.94 252.55 140.475 255.966C145.08 257.666 148.35 261.796 148.948 266.668C149.393 279.154 127.365 286.556 110.599 279.778C96.7756 274.07 95.9726 260.069 113.721 254.985ZM144.845 293.423C134.143 299.576 100.878 303.411 99.4511 281.026C114.553 293.601 136.338 294.082 151.98 282.186C151.784 286.938 149.063 291.224 144.845 293.423Z" fill="#040E1A"/>
<path fill-rule="evenodd" clip-rule="evenodd" d="M272.466 216.726C254.005 209.681 217.173 219.223 222.077 238.397C218.287 245.801 219.458 254.776 225.02 260.96C241.162 278.797 289.142 278.797 284.595 241.607C289.142 233.224 285.753 222.434 272.466 216.726ZM242.143 223.771C251.053 221.758 260.357 222.408 268.899 225.644C290.213 235.275 263.993 252.398 238.844 244.105C223.772 239.288 223.326 227.606 242.143 223.771ZM269.612 259.89C257.661 265.33 226.804 262.655 226.715 245.621C241.857 256.862 262.246 257.985 278.53 248.475C277.929 253.649 274.488 258.055 269.612 259.89Z" fill="#040E1A"/>
<path fill-rule="evenodd" clip-rule="evenodd" d="M229.212 290.658C232.333 281.74 227.428 271.484 213.337 268.095C194.253 264.171 159.114 279.332 166.962 297.615C164.409 305.543 166.996 314.226 173.473 319.464C184.463 326.958 198.34 328.84 210.929 324.548C226.183 321.322 234.893 305.176 229.212 290.658ZM184.62 279.956C193.101 276.518 202.406 275.649 211.376 277.459C233.939 283.524 210.662 304.214 184.62 300.647C167.854 297.792 167.943 285.932 184.532 279.599L184.62 279.956ZM217.351 311.081C205.846 318.84 175.435 320.445 172.76 304.036C189.555 312.611 209.838 310.404 224.396 298.417C224.415 303.507 221.688 308.211 217.261 310.724L217.351 311.081Z" fill="#040E1A"/>
<path fill-rule="evenodd" clip-rule="evenodd" d="M296.099 112.292C287.181 110.777 259.89 126.562 259.713 127.275C257.037 136.193 280.759 126.205 287.537 123.886C271.128 150.641 261.585 160.184 259.98 164.286C258.375 168.389 250.616 157.865 248.565 156.884C228.32 142.704 223.326 149.66 208.79 172.045C207.807 173.855 209.152 176.05 211.211 175.996C211.96 175.976 212.667 175.643 213.16 175.078C217.53 169.206 222.525 163.823 228.052 159.024C233.582 154.297 244.195 167.943 254.183 173.294C257.53 175.583 262 175.327 265.063 172.67C273.447 165.267 287.805 137.888 292.71 128.078L294.672 146.271C294.273 148.571 296.514 150.44 298.705 149.636C300.081 149.131 300.898 147.715 300.647 146.271C301.807 123.173 303.59 113.987 296.099 112.292Z" fill="#C98D34"/>
<path fill-rule="evenodd" clip-rule="evenodd" d="M102.483 230.729C100.587 227.078 99.4931 223.065 99.2731 218.957C100.805 204.095 107.237 190.165 117.555 179.36C129.327 166.964 131.111 172.849 135.392 169.461C136.412 168.42 136.412 166.756 135.392 165.715C132.984 162.326 126.474 164.734 122.728 166.339C98.4701 176.506 81.7039 211.555 97.3998 233.851C98.6015 235.807 101.47 235.73 102.564 233.711C103.072 232.774 103.041 231.637 102.483 230.729Z" fill="#C98D34"/>
<path fill-rule="evenodd" clip-rule="evenodd" d="M157.955 167.943C179.887 172.621 194.932 192.86 193.093 215.209C192.324 225.873 188.38 236.061 181.767 244.461C179.091 246.691 182.57 250.704 185.245 248.475C194.027 239.947 199.974 228.926 202.279 216.904C208.433 190.149 185.423 164.375 158.669 161.968C156.335 161.981 154.889 164.515 156.067 166.53C156.481 167.237 157.161 167.746 157.955 167.943Z" fill="#C98D34"/>
<path fill-rule="evenodd" clip-rule="evenodd" d="M122.192 155.547C128.079 161.878 129.684 163.661 131.111 163.93C132.164 164.429 133.423 164.132 134.143 163.216C137.176 159.917 113.096 139.582 121.123 134.499C124.784 132.645 129.238 133.528 131.913 136.64C136.462 141.99 136.819 142.704 137.889 143.328C140.435 144.623 143.538 143.995 145.38 141.812C147.788 139.315 148.055 136.461 153.318 132.894C155.101 131.556 158.758 129.594 160.184 131.289C163.128 134.856 160.808 138.779 162.771 141.812C163.909 143.869 166.471 144.657 168.567 143.596C169.96 142.699 171.273 141.685 172.492 140.563C173.206 140.029 175.256 139.672 176.326 138.869C175.804 144.656 173.875 150.228 170.708 155.1C169.616 157.163 171.166 159.635 173.499 159.55C174.575 159.51 175.55 158.903 176.059 157.954C178.752 153.51 180.879 148.746 182.391 143.774C183.219 141.029 183.402 138.13 182.927 135.302C182.124 130.664 178.021 127.721 169.995 131.734C167.319 118.446 153.228 115.324 140.475 130.575C139.762 131.467 140.475 132.359 137.978 129.148C131.867 123.417 122.589 122.712 115.683 127.453C105.337 135.48 113.452 146.182 122.192 155.547Z" fill="#C98D34"/>
<path fill-rule="evenodd" clip-rule="evenodd" d="M151.444 205.221C147.877 203.972 145.023 203.794 138.959 201.743C137.532 199.87 143.24 193.627 146.094 193.716L153.942 196.838C155.967 197.216 157.641 195.259 156.956 193.317C156.637 192.415 155.863 191.752 154.923 191.576C152.515 190.952 152.247 188.9 147.877 187.563C149.879 183.074 148.284 177.796 144.132 175.166C142.08 175.166 136.997 181.41 140.208 188.366C128.257 193.538 123.798 207.45 138.513 212.267C144.038 213.266 149.386 215.069 154.388 217.618C155.101 217.618 153.228 218.866 152.247 219.223C147.526 220.876 142.529 221.603 137.532 221.363C135.199 221.304 133.677 223.794 134.792 225.844C135.2 226.592 135.903 227.134 136.729 227.338C139.081 227.786 141.471 227.994 143.864 227.963C142.348 233.046 146.986 240.269 149.661 239.913C152.337 239.556 155.19 230.46 151.801 227.249H154.656C165.892 224.039 167.587 210.839 151.444 205.221Z" fill="#040E1A"/>
</g>
<defs>
<filter id="filter0_f_107_330" x="-24" y="0" width="440" height="440" filterUnits="userSpaceOnUse" color-interpolation-filters="sRGB">
<feFlood flood-opacity="0" result="BackgroundImageFix"/>
<feBlend mode="normal" in="SourceGraphic" in2="BackgroundImageFix" result="shape"/>
<feGaussianBlur stdDeviation="35" result="effect1_foregroundBlur_107_330"/>
</filter>
<filter id="filter1_i_107_330" x="87" y="110" width="219" height="223" filterUnits="userSpaceOnUse" color-interpolation-filters="sRGB">
<feFlood flood-opacity="0" result="BackgroundImageFix"/>
<feBlend mode="normal" in="SourceGraphic" in2="BackgroundImageFix" result="shape"/>
<feColorMatrix in="SourceAlpha" type="matrix" values="0 0 0 0 0 0 0 0 0 0 0 0 0 0 0 0 0 0 127 0" result="hardAlpha"/>
<feOffset dy="4"/>
<feGaussianBlur stdDeviation="2"/>
<feComposite in2="hardAlpha" operator="arithmetic" k2="-1" k3="1"/>
<feColorMatrix type="matrix" values="0 0 0 0 0 0 0 0 0 0 0 0 0 0 0 0 0 0 0.5 0"/>
<feBlend mode="normal" in2="shape" result="effect1_innerShadow_107_330"/>
</filter>
</defs>
</svg>
