<svg width="328" height="139" viewBox="0 0 328 139" fill="none" xmlns="http://www.w3.org/2000/svg">
<g filter="url(#filter0_d_115_630)">
<path d="M85.6236 12.712H88.2636V16.888C88.2636 18.016 89.1276 18.88 90.2556 18.88H100.096C100.744 18.88 101.248 18.376 101.248 17.728V12.712H103.888V17.704C103.888 20.08 101.968 22 99.5916 22H90.4956C87.8076 22 85.6236 19.816 85.6236 17.128V12.712ZM95.3676 9.952H98.1276V12.712H95.3676V9.952ZM91.3596 12.712V9.952H94.1196V12.712H91.3596ZM106.434 19.192C106.338 18.88 106.29 18.568 106.29 18.232C106.29 18.016 106.314 17.776 106.362 17.536L106.77 15.352C107.106 13.6 108.666 12.304 110.442 12.304H111.786C113.97 12.304 115.722 14.08 115.722 16.264V18.88H117.402C117.618 18.88 117.738 19 117.738 19.216V21.664C117.738 21.88 117.618 22 117.402 22H115.698C115.698 24.376 113.85 26.296 111.738 27.064L108.45 28.192L107.634 25.672L111.018 24.544C112.242 24.136 113.058 23.152 113.058 21.88V21.712C112.698 21.88 112.146 22 111.642 22H110.034C108.234 22 106.866 20.8 106.434 19.192ZM108.954 17.992C108.954 18.04 108.93 18.088 108.93 18.16C108.93 18.472 109.218 18.88 109.698 18.88H113.082V16.24C113.082 15.736 112.674 15.304 112.17 15.304H110.226C109.77 15.304 109.434 15.616 109.338 16.072L108.954 17.992ZM117.059 19.216C117.059 19 117.179 18.88 117.395 18.88H120.947C121.163 18.88 121.283 19 121.283 19.216V21.664C121.283 21.88 121.163 22 120.947 22H117.395C117.179 22 117.059 21.88 117.059 21.664V19.216ZM120.621 19.216C120.621 19 120.741 18.88 120.957 18.88H124.509C124.725 18.88 124.845 19 124.845 19.216V21.664C124.845 21.88 124.725 22 124.509 22H120.957C120.741 22 120.621 21.88 120.621 21.664V19.216ZM124.184 19.216C124.184 19 124.304 18.88 124.52 18.88H128.072C128.288 18.88 128.408 19 128.408 19.216V21.664C128.408 21.88 128.288 22 128.072 22H124.52C124.304 22 124.184 21.88 124.184 21.664V19.216ZM127.746 19.216C127.746 19 127.866 18.88 128.082 18.88H131.634C131.85 18.88 131.97 19 131.97 19.216V21.664C131.97 21.88 131.85 22 131.634 22H128.082C127.866 22 127.746 21.88 127.746 21.664V19.216ZM131.309 19.216C131.309 19 131.429 18.88 131.645 18.88H135.197C135.413 18.88 135.533 19 135.533 19.216V21.664C135.533 21.88 135.413 22 135.197 22H131.645C131.429 22 131.309 21.88 131.309 21.664V19.216ZM134.871 19.216C134.871 19 134.991 18.88 135.207 18.88H138.759C138.975 18.88 139.095 19 139.095 19.216V21.664C139.095 21.88 138.975 22 138.759 22H135.207C134.991 22 134.871 21.88 134.871 21.664V19.216ZM138.434 19.216C138.434 19 138.554 18.88 138.77 18.88H142.322C142.538 18.88 142.658 19 142.658 19.216V21.664C142.658 21.88 142.538 22 142.322 22H138.77C138.554 22 138.434 21.88 138.434 21.664V19.216ZM141.996 19.216C141.996 19 142.116 18.88 142.332 18.88H145.884C146.1 18.88 146.22 19 146.22 19.216V21.664C146.22 21.88 146.1 22 145.884 22H142.332C142.116 22 141.996 21.88 141.996 21.664V19.216ZM145.559 19.216C145.559 19 145.679 18.88 145.895 18.88H149.447C149.663 18.88 149.783 19 149.783 19.216V21.664C149.783 21.88 149.663 22 149.447 22H145.895C145.679 22 145.559 21.88 145.559 21.664V19.216ZM149.121 19.216C149.121 19 149.241 18.88 149.457 18.88H153.009C153.225 18.88 153.345 19 153.345 19.216V21.664C153.345 21.88 153.225 22 153.009 22H149.457C149.241 22 149.121 21.88 149.121 21.664V19.216ZM152.684 19.216C152.684 19 152.804 18.88 153.02 18.88H156.572C156.788 18.88 156.908 19 156.908 19.216V21.664C156.908 21.88 156.788 22 156.572 22H153.02C152.804 22 152.684 21.88 152.684 21.664V19.216ZM156.246 19.216C156.246 19 156.366 18.88 156.582 18.88H160.134C160.35 18.88 160.47 19 160.47 19.216V21.664C160.47 21.88 160.35 22 160.134 22H156.582C156.366 22 156.246 21.88 156.246 21.664V19.216ZM159.809 19.216C159.809 19 159.929 18.88 160.145 18.88H163.697C163.913 18.88 164.033 19 164.033 19.216V21.664C164.033 21.88 163.913 22 163.697 22H160.145C159.929 22 159.809 21.88 159.809 21.664V19.216ZM163.371 19.24C163.371 19.048 163.539 18.88 163.707 18.88H164.811C165.459 18.88 165.963 18.328 165.963 17.68V13.408H168.603V17.704C168.603 18.352 169.107 18.88 169.755 18.88H170.451C171.099 18.88 171.627 18.472 171.747 17.824L172.635 13.48L175.227 13.96L174.507 17.56C174.483 17.656 174.483 17.728 174.483 17.824C174.483 18.28 174.915 18.88 175.587 18.88H177.363V12.76H180.003V19.072C180.003 20.704 178.707 22 177.075 22H175.587C174.555 22 173.643 21.592 172.995 20.56C172.251 21.592 171.267 22 170.211 22C169.059 22 168.027 21.544 167.283 20.584C166.515 21.544 165.483 22 164.331 22H163.707C163.491 22 163.371 21.88 163.371 21.664V19.24ZM213.959 28.168H211.319V16.624C211.319 14.248 213.239 12.328 215.615 12.328H221.303C223.487 12.328 225.263 14.104 225.263 16.264V19.096C225.263 20.704 223.967 22 222.335 22H219.551C218.375 22 217.343 21.448 216.671 20.632C215.999 19.816 215.807 18.904 215.807 18.256C215.807 18.016 215.831 17.776 215.879 17.536L216.287 15.328H215.111C214.463 15.328 213.959 15.832 213.959 16.48V28.168ZM218.495 17.968C218.495 18.016 218.471 18.088 218.471 18.136C218.471 18.472 218.759 18.88 219.215 18.88H222.623V16.24C222.623 15.736 222.191 15.328 221.687 15.328H218.999L218.495 17.968ZM230.553 22H227.913V5.56H230.553V22ZM233.066 19.192C232.994 18.904 232.946 18.592 232.946 18.28C232.946 18.04 232.97 17.776 233.018 17.536L233.426 15.352C233.762 13.6 235.322 12.304 237.098 12.304H238.442C240.626 12.304 242.378 14.08 242.378 16.264V21.496C242.378 24.016 240.794 26.248 238.394 27.064L235.106 28.192L234.29 25.672L237.674 24.544C238.898 24.136 239.714 23.152 239.714 21.88V21.712C239.354 21.88 238.802 22 238.298 22H236.69C234.914 22 233.498 20.8 233.066 19.192ZM235.61 17.992C235.61 18.04 235.586 18.088 235.586 18.16C235.586 18.472 235.874 18.88 236.354 18.88H239.738V16.24C239.738 15.736 239.33 15.304 238.826 15.304H236.882C236.426 15.304 236.09 15.616 235.994 16.072L235.61 17.992ZM32.7861 93.624L36.2421 92.496C37.4661 92.112 38.2341 90.96 38.2341 89.712V81.408H40.8741V85.896C40.8741 86.472 41.4501 86.88 42.0261 86.88H43.7781C43.9941 86.88 44.1141 87 44.1141 87.216V89.664C44.1141 89.88 43.9941 90 43.7781 90H42.4581C41.9061 90 41.2341 89.856 40.8741 89.256V89.688C40.8741 92.112 39.1941 94.2 36.9141 94.968L33.6021 96.096L32.7861 93.624ZM43.4413 89.664V87.24C43.4413 87.048 43.5853 86.88 43.7773 86.88H45.8413C46.4893 86.88 47.0173 86.472 47.1373 85.824L48.0253 81.504L50.6173 81.96L49.8973 85.584C49.8733 85.68 49.8733 85.752 49.8733 85.848C49.8733 86.304 50.2813 86.88 50.9773 86.88H52.7773C52.9693 86.88 53.1133 87.048 53.1133 87.24V89.664C53.1133 89.832 52.9693 90 52.7773 90H50.9533C50.4493 90 49.9213 89.856 49.4173 89.568C48.9133 89.304 48.5533 88.968 48.3853 88.584C47.9293 89.352 46.6573 90 45.6013 90H43.7773C43.5613 90 43.4413 89.88 43.4413 89.664ZM48.8893 95.64V92.88H51.6493V95.64H48.8893ZM47.6413 95.64H44.9053V92.88H47.6413V95.64ZM52.4413 89.664V87.24C52.4413 87.048 52.6093 86.88 52.7773 86.88H53.7613C54.4093 86.856 54.9133 86.352 54.9133 85.704V81.408H57.5533V85.752C57.5533 86.328 58.1293 86.88 58.6813 86.88H59.4493C60.0973 86.88 60.6253 86.448 60.7453 85.8L61.5853 81.456L64.1773 81.936L63.4573 85.584C63.4333 85.68 63.4333 85.752 63.4333 85.824C63.4333 86.304 63.8653 86.88 64.5373 86.88H65.2093C65.8573 86.88 66.3613 86.4 66.3613 85.752V80.784H69.0013V85.728C69.0013 86.376 69.5053 86.88 70.1533 86.88H71.1133C71.3053 86.88 71.4493 87.048 71.4493 87.216V89.64C71.4493 89.832 71.3293 90 71.1133 90H70.5853C69.4333 90 68.4253 89.568 67.6813 88.584C66.9133 89.568 65.8573 90 64.7053 90C63.6733 90 62.6173 89.616 61.9693 88.584C61.2253 89.616 60.2413 90 59.1853 90C58.0333 90 57.0253 89.568 56.2573 88.584C55.4893 89.568 54.4573 90 53.3053 90H52.7773C52.6093 90 52.4413 89.832 52.4413 89.664ZM70.7695 89.64V87.192C70.7695 86.976 70.8895 86.856 71.1055 86.856H71.8735C72.5215 86.856 73.0255 86.448 73.1455 85.8L73.6255 83.328C73.9615 81.576 75.5215 80.304 77.2975 80.304H78.6415C80.8255 80.304 82.5775 82.056 82.5775 84.24V87.048C82.5775 88.68 81.2815 89.976 79.6735 89.976H76.8895C75.9295 89.976 75.0415 89.64 74.3455 88.608C73.6015 89.64 72.7135 89.976 71.6815 89.976H71.1055C70.8895 89.976 70.7695 89.856 70.7695 89.64ZM75.8095 85.968C75.8095 86.016 75.7855 86.064 75.7855 86.136C75.7855 86.448 76.0735 86.856 76.5535 86.856H79.9375V84.216C79.9375 83.712 79.5295 83.304 79.0255 83.304H77.0815C76.6255 83.304 76.2895 83.592 76.1935 84.048L75.8095 85.968ZM85.2158 93.648L88.6718 92.52C89.8958 92.112 90.6638 90.984 90.6638 89.736V81.432H93.3038V89.472C93.3038 92.016 91.7198 94.152 89.3438 94.992L86.0318 96.12L85.2158 93.648ZM96.1939 83.688H98.4499V86.328C98.4499 86.64 98.7139 86.88 99.0019 86.88H102.962C103.538 86.88 104.018 86.568 104.306 86.112C104.57 85.656 104.522 85.368 104.522 85.344C104.522 85.08 104.45 84.84 104.306 84.6L101.33 79.296L103.562 77.832L106.754 83.496C107.138 84.144 107.33 84.84 107.33 85.536C107.33 85.656 107.45 86.568 106.706 87.816C105.962 89.088 104.594 90 102.938 90H99.3619C97.6339 90 96.1939 88.56 96.1939 86.808V83.688ZM112.342 85.8V73.56H114.982V85.728C114.982 86.376 115.486 86.88 116.134 86.88H117.262C117.454 86.88 117.598 87.048 117.598 87.24V89.664C117.598 89.88 117.478 90 117.262 90H116.566C114.262 90 112.342 88.128 112.342 85.8ZM116.918 89.664V87.216C116.918 87 117.038 86.88 117.254 86.88H118.022C118.67 86.88 119.174 86.472 119.294 85.824L119.774 83.352C120.11 81.6 121.67 80.328 123.446 80.328H124.79C126.974 80.328 128.726 82.08 128.726 84.264V85.728C128.726 86.376 129.23 86.88 129.878 86.88H130.79C131.006 86.88 131.126 87 131.126 87.216V89.664C131.126 89.856 130.958 90 130.79 90H130.334C129.398 90 128.534 89.712 127.838 88.968C127.334 89.664 126.662 90 125.822 90H123.038C122.078 90 121.19 89.64 120.494 88.608C119.75 89.64 118.862 90 117.83 90H117.254C117.038 90 116.918 89.88 116.918 89.664ZM121.958 85.992C121.958 86.04 121.934 86.088 121.934 86.16C121.934 86.472 122.222 86.88 122.702 86.88H126.086V84.24C126.086 83.736 125.678 83.328 125.174 83.328H123.23C122.774 83.328 122.438 83.616 122.342 84.072L121.958 85.992ZM130.465 87.24C130.465 87.048 130.633 86.88 130.801 86.88H131.905C132.553 86.88 133.057 86.328 133.057 85.68V81.408H135.697V85.704C135.697 86.352 136.201 86.88 136.849 86.88H137.545C138.193 86.88 138.721 86.472 138.841 85.824L139.729 81.48L142.321 81.96L141.601 85.56C141.577 85.656 141.577 85.728 141.577 85.824C141.577 86.28 142.009 86.88 142.681 86.88H144.457V80.76H147.097V87.072C147.097 88.704 145.801 90 144.169 90H142.681C141.649 90 140.737 89.592 140.089 88.56C139.345 89.592 138.361 90 137.305 90C136.153 90 135.121 89.544 134.377 88.584C133.609 89.544 132.577 90 131.425 90H130.801C130.585 90 130.465 89.88 130.465 89.664V87.24ZM136.297 79.296V76.536H139.057V79.296H136.297ZM138.265 75.648V72.888H141.025V75.648H138.265ZM140.305 76.536H143.065V79.296H140.305V76.536ZM152.116 83.688H154.372V86.328C154.372 86.64 154.636 86.88 154.924 86.88H158.452C158.932 86.88 159.388 86.64 159.676 86.304C159.964 85.968 160.012 85.632 160.012 85.44C160.012 85.32 159.988 85.2 159.964 85.08L158.044 78.144L160.54 77.232L162.988 85.944C163.156 86.496 163.636 86.88 164.212 86.88H164.884C165.052 86.88 165.22 87.048 165.22 87.24V89.664C165.22 89.832 165.076 90 164.884 90H164.404C163.132 90 162.124 89.4 161.476 88.752C160.708 89.496 159.652 90 158.428 90H155.284C153.556 90 152.116 88.56 152.116 86.808V83.688ZM164.543 87.24C164.543 87.048 164.687 86.88 164.879 86.88H166.943C167.591 86.88 168.119 86.472 168.239 85.824L169.127 81.504L171.719 81.96L170.999 85.584C170.975 85.68 170.975 85.752 170.975 85.848C170.975 86.304 171.383 86.88 172.079 86.88H173.879C174.071 86.88 174.215 87.048 174.215 87.24V89.664C174.215 89.832 174.071 90 173.879 90H172.055C171.551 90 171.023 89.856 170.519 89.568C170.015 89.304 169.655 88.968 169.487 88.584C169.031 89.352 167.759 90 166.703 90H164.879C164.663 90 164.543 89.88 164.543 89.664V87.24ZM168.479 79.296V76.536H171.239V79.296H168.479ZM173.543 89.664V87.216C173.543 87 173.663 86.88 173.879 86.88H174.647C175.295 86.88 175.799 86.472 175.919 85.824L176.399 83.352C176.735 81.6 178.295 80.328 180.071 80.328H181.415C183.599 80.328 185.351 82.08 185.351 84.264V85.728C185.351 86.376 185.855 86.88 186.503 86.88H187.415C187.631 86.88 187.751 87 187.751 87.216V89.664C187.751 89.856 187.583 90 187.415 90H186.959C186.023 90 185.159 89.712 184.463 88.968C183.959 89.664 183.287 90 182.447 90H179.663C178.703 90 177.815 89.64 177.119 88.608C176.375 89.64 175.487 90 174.455 90H173.879C173.663 90 173.543 89.88 173.543 89.664ZM178.583 85.992C178.583 86.04 178.559 86.088 178.559 86.16C178.559 86.472 178.847 86.88 179.327 86.88H182.711V84.24C182.711 83.736 182.303 83.328 181.799 83.328H179.855C179.399 83.328 179.063 83.616 178.967 84.072L178.583 85.992ZM187.09 87.24C187.09 87.048 187.258 86.88 187.426 86.88H188.53C189.178 86.88 189.682 86.328 189.682 85.68V81.408H192.322V85.704C192.322 86.352 192.826 86.88 193.474 86.88H194.17C194.818 86.88 195.346 86.472 195.466 85.824L196.354 81.48L198.946 81.96L198.226 85.56C198.202 85.656 198.202 85.728 198.202 85.824C198.202 86.28 198.634 86.88 199.306 86.88H201.082V80.76H203.722V87.072C203.722 88.704 202.426 90 200.794 90H199.306C198.274 90 197.362 89.592 196.714 88.56C195.97 89.592 194.986 90 193.93 90C192.778 90 191.746 89.544 191.002 88.584C190.234 89.544 189.202 90 188.05 90H187.426C187.21 90 187.09 89.88 187.09 89.664V87.24ZM192.922 79.296V76.536H195.682V79.296H192.922ZM194.89 75.648V72.888H197.65V75.648H194.89ZM196.93 76.536H199.69V79.296H196.93V76.536ZM206.254 87.192C206.158 86.88 206.11 86.568 206.11 86.232C206.11 86.016 206.134 85.776 206.182 85.536L206.59 83.352C206.926 81.6 208.486 80.304 210.262 80.304H211.606C213.79 80.304 215.542 82.08 215.542 84.264V86.88H217.222C217.438 86.88 217.558 87 217.558 87.216V89.664C217.558 89.88 217.438 90 217.222 90H215.518C215.518 92.376 213.67 94.296 211.558 95.064L208.27 96.192L207.454 93.672L210.838 92.544C212.062 92.136 212.878 91.152 212.878 89.88V89.712C212.518 89.88 211.966 90 211.462 90H209.854C208.054 90 206.686 88.8 206.254 87.192ZM208.774 85.992C208.774 86.04 208.75 86.088 208.75 86.16C208.75 86.472 209.038 86.88 209.518 86.88H212.902V84.24C212.902 83.736 212.494 83.304 211.99 83.304H210.046C209.59 83.304 209.254 83.616 209.158 84.072L208.774 85.992ZM216.879 89.664V87.216C216.879 87 216.999 86.88 217.215 86.88H219.423C219.135 86.688 219.111 86.16 219.207 85.656L219.255 85.248L219.591 83.616C219.975 81.864 221.439 80.592 223.263 80.592H224.247C226.359 80.592 228.135 82.368 228.135 84.48V85.728C228.135 86.304 227.943 86.808 227.919 86.88H231.567V83.424C231.567 82.752 231.159 82.176 230.511 81.96L221.919 79.296L222.639 76.56L230.967 79.152C232.887 79.728 234.207 81.528 234.207 83.544V86.976C234.207 88.632 232.839 90 231.159 90H227.295V88.248C226.839 89.544 225.135 90 224.463 90H217.215C216.999 90 216.879 89.88 216.879 89.664ZM221.799 85.968C221.799 86.016 221.775 86.088 221.775 86.136C221.775 86.472 222.087 86.88 222.567 86.88H225.495V84.24C225.495 83.76 225.087 83.352 224.583 83.352H223.023C222.567 83.352 222.183 83.664 222.111 84.12L221.799 85.968ZM239.233 85.728V84.984C239.233 83.448 240.145 82.104 241.081 81.6C241.345 81.432 241.489 81.384 241.585 81.312C241.633 81.288 241.657 81.288 241.681 81.264L240.073 80.184L241.513 77.952L247.033 81.624C248.377 82.512 248.785 83.784 248.785 84.912V85.728C248.785 87.816 247.297 90.264 244.225 90.264H243.721C240.817 90.264 239.233 87.768 239.233 85.728ZM241.873 85.728C241.873 86.352 242.449 87.264 243.457 87.264H244.561C245.737 87.264 246.145 86.136 246.145 85.8V84.792C246.145 84.432 245.977 84.048 245.617 83.832C245.497 83.76 245.089 83.472 244.633 83.208C244.393 83.064 244.129 82.896 243.841 82.704L242.353 83.832C242.137 84 241.873 84.24 241.873 84.72V85.728ZM254.06 90H251.42V73.56H254.06V90ZM251.528 93.624L254.984 92.496C256.208 92.112 256.976 90.96 256.976 89.712V81.408H259.616V85.896C259.616 86.472 260.192 86.88 260.768 86.88H262.52C262.736 86.88 262.856 87 262.856 87.216V89.664C262.856 89.88 262.736 90 262.52 90H261.2C260.648 90 259.976 89.856 259.616 89.256V89.688C259.616 92.112 257.936 94.2 255.656 94.968L252.344 96.096L251.528 93.624ZM262.184 89.664V87.216C262.184 87 262.304 86.88 262.52 86.88H263.288C263.936 86.88 264.44 86.472 264.56 85.824L265.04 83.352C265.376 81.6 266.936 80.328 268.712 80.328H270.056C272.24 80.328 273.992 82.08 273.992 84.264V85.728C273.992 86.376 274.496 86.88 275.144 86.88H276.056C276.272 86.88 276.392 87 276.392 87.216V89.664C276.392 89.856 276.224 90 276.056 90H275.6C274.664 90 273.8 89.712 273.104 88.968C272.6 89.664 271.928 90 271.088 90H268.304C267.344 90 266.456 89.64 265.76 88.608C265.016 89.64 264.128 90 263.096 90H262.52C262.304 90 262.184 89.88 262.184 89.664ZM267.224 85.992C267.224 86.04 267.2 86.088 267.2 86.16C267.2 86.472 267.488 86.88 267.968 86.88H271.352V84.24C271.352 83.736 270.944 83.328 270.44 83.328H268.496C268.04 83.328 267.704 83.616 267.608 84.072L267.224 85.992ZM275.73 89.664V87.216C275.73 87 275.85 86.88 276.066 86.88H278.274C277.986 86.688 277.962 86.16 278.058 85.656L278.106 85.248L278.442 83.616C278.826 81.864 280.29 80.592 282.114 80.592H283.098C285.21 80.592 286.986 82.368 286.986 84.48V85.728C286.986 86.304 286.794 86.808 286.77 86.88H290.418V83.424C290.418 82.752 290.01 82.176 289.362 81.96L280.77 79.296L281.49 76.56L289.818 79.152C291.738 79.728 293.058 81.528 293.058 83.544V86.976C293.058 88.632 291.69 90 290.01 90H286.146V88.248C285.69 89.544 283.986 90 283.314 90H276.066C275.85 90 275.73 89.88 275.73 89.664ZM280.65 85.968C280.65 86.016 280.626 86.088 280.626 86.136C280.626 86.472 280.938 86.88 281.418 86.88H284.346V84.24C284.346 83.76 283.938 83.352 283.434 83.352H281.874C281.418 83.352 281.034 83.664 280.962 84.12L280.65 85.968ZM110.519 124H107.543V120.736H110.519V124ZM110.447 118H107.615L107.303 107.68H110.783L110.447 118ZM118.685 130.168H116.045V118.624C116.045 116.248 117.965 114.328 120.341 114.328H126.029C128.213 114.328 129.989 116.104 129.989 118.264V121.096C129.989 122.704 128.693 124 127.061 124H124.277C123.101 124 122.069 123.448 121.397 122.632C120.725 121.816 120.533 120.904 120.533 120.256C120.533 120.016 120.557 119.776 120.605 119.536L121.013 117.328H119.837C119.189 117.328 118.685 117.832 118.685 118.48V130.168ZM123.221 119.968C123.221 120.016 123.197 120.088 123.197 120.136C123.197 120.472 123.485 120.88 123.941 120.88H127.349V118.24C127.349 117.736 126.917 117.328 126.413 117.328H123.725L123.221 119.968ZM135.279 124H132.639V107.56H135.279V124ZM137.793 121.192C137.721 120.904 137.673 120.592 137.673 120.28C137.673 120.04 137.697 119.776 137.745 119.536L138.153 117.352C138.489 115.6 140.049 114.304 141.825 114.304H143.169C145.353 114.304 147.105 116.08 147.105 118.264V123.496C147.105 126.016 145.521 128.248 143.121 129.064L139.833 130.192L139.017 127.672L142.401 126.544C143.625 126.136 144.441 125.152 144.441 123.88V123.712C144.081 123.88 143.529 124 143.025 124H141.417C139.641 124 138.225 122.8 137.793 121.192ZM140.337 119.992C140.337 120.04 140.313 120.088 140.313 120.16C140.313 120.472 140.601 120.88 141.081 120.88H144.465V118.24C144.465 117.736 144.057 117.304 143.553 117.304H141.609C141.153 117.304 140.817 117.616 140.721 118.072L140.337 119.992ZM152.374 114.736H155.014V118.912C155.014 120.04 155.878 120.88 157.006 120.88H166.846C167.494 120.88 167.998 120.4 167.998 119.752V115.432H170.638V119.728C170.638 120.376 171.142 120.88 171.79 120.88H172.486C172.678 120.88 172.846 121.024 172.846 121.216V123.664C172.846 123.856 172.678 124 172.486 124H172.246C171.094 124 170.086 123.472 169.342 122.584C168.55 123.568 167.518 124 166.366 124H157.246C154.558 124 152.374 121.816 152.374 119.128V114.736ZM162.142 111.976H164.902V114.736H162.142V111.976ZM158.134 114.736V111.976H160.894V114.736H158.134ZM172.184 123.64V121.216C172.184 121.048 172.304 120.88 172.52 120.88H179.12C179.768 120.88 180.272 120.376 180.272 119.728V119.224C179.792 119.392 179.312 119.488 178.832 119.488H177.416C176.24 119.488 175.16 118.936 174.488 118.072C173.792 117.232 173.624 116.344 173.624 115.696C173.624 115.432 173.648 115.192 173.696 114.928L174.056 113.008C174.368 111.232 175.952 109.96 177.728 109.96H179.024C181.208 109.96 182.912 111.736 182.912 113.848V119.704C182.912 122.08 180.992 124 178.616 124H172.52C172.328 124 172.184 123.832 172.184 123.64ZM176.288 115.432C176.288 115.48 176.264 115.552 176.264 115.6C176.264 115.936 176.552 116.368 177.032 116.368H180.272V113.872C180.272 113.368 179.864 112.96 179.36 112.96H177.512C177.056 112.96 176.672 113.272 176.6 113.728L176.288 115.432ZM177.176 105.04H179.936V107.8H177.176V105.04ZM185.561 119.8V107.56H188.201V119.728C188.201 120.376 188.705 120.88 189.353 120.88H190.481C190.673 120.88 190.817 121.048 190.817 121.24V123.664C190.817 123.88 190.697 124 190.481 124H189.785C187.481 124 185.561 122.128 185.561 119.8ZM190.137 121.24C190.137 121.048 190.281 120.88 190.473 120.88H195.993C196.641 120.88 197.145 120.352 197.145 119.704V114.736H199.785V119.704C199.785 122.08 197.865 124 195.489 124H190.473C190.281 124 190.137 123.832 190.137 123.664V121.24ZM197.577 129.64H194.817V126.88H197.577V129.64ZM190.833 126.88H193.569V129.64H190.833V126.88ZM198.841 127.648L202.297 126.52C203.521 126.112 204.289 124.984 204.289 123.736V115.432H206.929V123.472C206.929 126.016 205.345 128.152 202.969 128.992L199.657 130.12L198.841 127.648ZM209.819 117.688H212.075V120.328C212.075 120.64 212.339 120.88 212.627 120.88H216.587C217.163 120.88 217.643 120.568 217.931 120.112C218.195 119.656 218.147 119.368 218.147 119.344C218.147 119.08 218.075 118.84 217.931 118.6L214.955 113.296L217.187 111.832L220.379 117.496C220.763 118.144 220.955 118.84 220.955 119.536C220.955 119.656 221.075 120.568 220.331 121.816C219.587 123.088 218.219 124 216.563 124H212.987C211.259 124 209.819 122.56 209.819 120.808V117.688Z" fill="#040E1A"/>
</g>
<g filter="url(#filter1_d_115_630)">
<path fill-rule="evenodd" clip-rule="evenodd" d="M203.583 16.2966C203.237 16.252 202.884 16.2891 202.554 16.405C202.471 16.1403 202.35 15.8886 202.197 15.6575C202.011 15.3812 201.736 15.1781 201.417 15.0833C201.098 15.0022 200.769 14.9766 200.442 15.0075L200.106 15.0725C200.507 14.0866 201.092 12.5916 201.557 11.2916C201.882 10.3925 202.142 9.5908 202.262 9.12497C202.455 8.49772 202.536 7.84119 202.5 7.1858C202.447 6.66329 202.217 6.17438 201.85 5.79913C201.228 5.14559 200.418 4.70249 199.532 4.53163C199.069 4.47536 198.599 4.53056 198.162 4.69262C197.725 4.85469 197.333 5.11893 197.018 5.4633C196.705 5.80637 196.468 6.21273 196.325 6.65497C196.075 6.17776 195.701 5.77716 195.242 5.4958C194.552 5.12668 193.751 5.01898 192.988 5.19247C192.209 5.33749 191.515 5.77558 191.049 6.41663C190.653 7.00312 190.435 7.69156 190.421 8.39913C190.405 9.0497 190.5 9.69824 190.702 10.3166L191.287 12.7975L191.851 16.0475C191.851 16.1233 191.916 16.5133 191.97 16.6541C191.988 16.7382 192.034 16.8134 192.101 16.8668C192.169 16.9202 192.252 16.9485 192.338 16.9466C192.826 16.9466 192.338 14.1408 192.197 12.7866C192.197 12.6025 192.132 12.1583 192.067 11.7033C192.002 11.2483 191.829 10.3275 191.764 10.0783C191.643 9.56024 191.61 9.0256 191.667 8.49663C191.685 8.02751 191.827 7.57157 192.078 7.17497C192.332 6.79152 192.717 6.51412 193.162 6.39497C193.612 6.28415 194.087 6.33396 194.505 6.5358C194.794 6.69921 195.037 6.93423 195.209 7.2183C195.398 7.53024 195.523 7.87628 195.577 8.23663C195.711 9.20307 195.794 10.1758 195.827 11.1508C195.924 13.3175 195.902 15.5925 195.902 15.5925C195.9 15.6912 195.935 15.7873 196.002 15.8601C196.069 15.933 196.161 15.9769 196.26 15.9825C196.31 15.987 196.36 15.9811 196.407 15.9652C196.454 15.9493 196.497 15.9236 196.534 15.89C196.571 15.8563 196.6 15.8154 196.62 15.7697C196.64 15.7241 196.65 15.6748 196.65 15.625C196.65 15.625 196.802 13.35 196.812 11.1291C196.834 10.1459 196.801 9.16218 196.715 8.18247C196.715 8.04163 196.78 7.88997 196.823 7.75997C196.957 7.18029 197.241 6.64602 197.647 6.2108C197.866 6.00645 198.13 5.85525 198.417 5.76886C198.705 5.68246 199.008 5.66317 199.304 5.71247C199.917 5.86505 200.469 6.20147 200.886 6.67663C201.107 6.91922 201.227 7.23691 201.222 7.56497C201.2 8.00656 201.138 8.44529 201.037 8.8758C200.854 9.81957 200.619 10.7526 200.333 11.6708C200.333 11.7683 198.167 16.3183 199.315 16.405C199.943 16.405 199.315 15.8525 200.507 15.885C200.718 15.8846 200.928 15.9251 201.124 16.0041C201.243 16.0583 201.276 16.1883 201.33 16.3183C201.41 16.4963 201.457 16.687 201.471 16.8816C201.479 17.0994 201.501 17.3165 201.536 17.5316C201.586 17.6648 201.677 17.7786 201.796 17.8566C201.901 17.9186 202.021 17.9512 202.142 17.9512C202.264 17.9512 202.384 17.9186 202.489 17.8566C202.605 17.7427 202.745 17.6563 202.899 17.6038C203.053 17.5512 203.216 17.534 203.377 17.5533C203.513 17.5705 203.641 17.6269 203.746 17.7158C203.8 17.77 203.8 17.8783 203.822 17.9975C203.878 18.3084 203.903 18.6241 203.897 18.94C203.896 19.5165 203.852 20.0922 203.767 20.6625C203.701 21.1317 203.6 21.5952 203.464 22.0491C203.382 22.3315 203.27 22.6039 203.128 22.8616C203.097 22.9009 203.074 22.9461 203.061 22.9946C203.048 23.0431 203.045 23.0937 203.052 23.1434C203.059 23.1931 203.076 23.2409 203.102 23.2837C203.128 23.3265 203.163 23.3635 203.204 23.3925C203.244 23.4215 203.289 23.4423 203.337 23.4537C203.384 23.4651 203.434 23.4668 203.482 23.4587C203.531 23.4506 203.577 23.4329 203.619 23.4067C203.66 23.3804 203.696 23.3461 203.724 23.3058C203.946 23.011 204.124 22.6864 204.255 22.3416C204.453 21.8593 204.616 21.3633 204.742 20.8575C204.981 19.9927 205.105 19.1003 205.111 18.2033C205.124 17.6729 204.934 17.1575 204.58 16.7625C204.303 16.5087 203.955 16.3461 203.583 16.2966Z" fill="#C98D34" stroke="#C98D34"/>
<path fill-rule="evenodd" clip-rule="evenodd" d="M191.06 21.8325C190.545 21.1563 190.099 20.4305 189.727 19.6658C189.378 18.8673 189.156 18.0194 189.067 17.1525C189.019 16.9199 189.021 16.6797 189.073 16.448C189.126 16.2164 189.227 15.9985 189.37 15.8091C189.54 15.6173 189.776 15.4972 190.031 15.4733C190.326 15.4616 190.619 15.5329 190.876 15.6791C190.951 15.7238 191.04 15.7374 191.125 15.7172C191.21 15.697 191.284 15.6445 191.331 15.5708C191.354 15.534 191.37 15.4929 191.378 15.4499C191.385 15.4068 191.383 15.3628 191.373 15.3203C191.363 15.2778 191.345 15.2378 191.319 15.2027C191.293 15.1676 191.26 15.138 191.222 15.1158C190.876 14.8541 190.463 14.6963 190.031 14.6608C189.553 14.6285 189.08 14.7795 188.709 15.0833C188.397 15.3458 188.153 15.68 187.999 16.0574C187.844 16.4347 187.783 16.8439 187.821 17.25C187.906 18.2742 188.182 19.2735 188.633 20.1966C189.115 20.976 189.678 21.7023 190.312 22.3633C190.499 22.6286 190.635 22.9261 190.713 23.2408C190.722 23.2899 190.741 23.3368 190.768 23.3787C190.796 23.4206 190.831 23.4567 190.872 23.4848C190.914 23.513 190.96 23.5328 191.009 23.543C191.058 23.5531 191.108 23.5535 191.157 23.5441C191.206 23.5365 191.252 23.5189 191.294 23.4926C191.335 23.4662 191.37 23.4317 191.398 23.391C191.425 23.3504 191.444 23.3045 191.453 23.2563C191.462 23.2081 191.461 23.1586 191.45 23.1108C191.413 22.6616 191.28 22.2257 191.06 21.8325Z" fill="#C98D34" stroke="#C98D34"/>
</g>
<path d="M85.1047 42.9288C89.8683 42.4952 94.6897 42.2766 99.5195 42.2755H122.209C129.684 42.2755 140.094 42.6384 148.903 42.6384C162.25 42.6384 175.597 42.2755 188.944 42.1303C202.291 41.9851 217.107 40.0978 231.388 39.6623C237.162 39.4082 242.965 39.4082 248.739 39.6623C249.92 39.7483 251.116 39.5858 252.083 39.208C253.051 38.8302 253.717 38.2657 253.944 37.6298C254.039 37.3053 254.013 36.9737 253.869 36.6546C253.724 36.3356 253.464 36.0354 253.104 35.7717C252.743 35.508 252.289 35.2861 251.769 35.1191C251.249 34.952 250.672 34.8432 250.074 34.7989C243.985 34.2552 237.825 33.9882 231.655 34.0004C231.655 34.0004 156.778 34.4359 155.577 34.4359C144.232 34.4359 133.02 35.2344 121.809 35.7425C114.201 36.1055 106.46 36.3232 98.8521 36.8314C93.5847 37.1995 88.3679 37.7572 83.2361 38.5009C82.6882 38.5591 82.1688 38.679 81.7111 38.8529C81.2534 39.0268 80.8677 39.2508 80.5786 39.5105C80.2895 39.7703 80.1035 40.06 80.0325 40.3612C79.9615 40.6623 80.0071 40.9682 80.1663 41.2592C80.2755 41.5492 80.4922 41.824 80.8032 42.0668C81.1142 42.3097 81.513 42.5156 81.9751 42.6718C82.4373 42.828 82.9532 42.9314 83.4913 42.9756C84.0294 43.0198 84.5783 43.0038 85.1047 42.9288Z" fill="#C98D34"/>
<path d="M84.5895 43.1239C88.5891 43.119 92.6347 43.1874 96.6849 43.3284L115.712 43.9929C121.98 44.2117 130.706 44.6375 138.092 44.8955C149.285 45.2863 160.481 45.5562 171.676 45.8987C182.87 46.2412 195.315 46.0463 207.296 46.3194C212.141 46.4039 217.007 46.5738 221.846 46.8275C222.835 46.8908 223.84 46.8717 224.656 46.7741C225.472 46.6766 226.037 46.508 226.235 46.3029C226.318 46.1975 226.3 46.0863 226.183 45.9758C226.065 45.8653 225.851 45.7577 225.551 45.6593C225.252 45.5609 224.874 45.4737 224.44 45.4028C224.006 45.3319 223.523 45.2788 223.022 45.2465C217.923 44.8871 212.76 44.6177 207.586 44.4411C207.586 44.4411 144.791 42.3936 143.784 42.3584C134.271 42.0262 124.86 41.9638 115.452 41.8048C109.068 41.7029 102.574 41.5488 96.1886 41.4953C91.7672 41.4637 87.3861 41.4967 83.0741 41.5941C82.614 41.5975 82.177 41.6222 81.7911 41.6668C81.4053 41.7113 81.0792 41.7746 80.8338 41.8527C80.5884 41.9307 80.429 42.0218 80.366 42.1201C80.3029 42.2183 80.3376 42.3215 80.4678 42.4231C80.5559 42.5229 80.7345 42.6208 80.9924 42.7108C81.2504 42.8008 81.5824 42.8811 81.9681 42.9467C82.3539 43.0123 82.7853 43.0618 83.236 43.0923C83.6867 43.1228 84.1472 43.1335 84.5895 43.1239Z" fill="#C98D34"/>
<path d="M137.644 51.0064C140.077 50.8733 142.541 50.7629 145.01 50.6766L156.609 50.2715C160.43 50.1381 165.753 49.9926 170.256 49.8353C177.078 49.5971 183.9 49.3185 190.722 49.0641C197.544 48.8098 205.11 48.3357 212.409 48.0324C215.36 47.9011 218.326 47.7976 221.278 47.7227C221.882 47.7112 222.493 47.6718 222.986 47.6125C223.479 47.5533 223.817 47.4788 223.931 47.4041C223.978 47.3664 223.964 47.33 223.889 47.2972C223.814 47.2643 223.68 47.2356 223.494 47.2128C223.309 47.1899 223.076 47.1734 222.81 47.1641C222.543 47.1549 222.248 47.1531 221.942 47.1588C218.827 47.2071 215.677 47.2875 212.523 47.399C212.523 47.399 174.249 48.7839 173.635 48.8054C167.836 49.0079 162.108 49.2967 156.379 49.5532C152.491 49.7294 148.535 49.8917 144.648 50.084C141.957 50.2189 139.292 50.3739 136.672 50.5481C136.392 50.5644 136.127 50.5869 135.894 50.6144C135.66 50.6419 135.464 50.6737 135.317 50.7077C135.17 50.7417 135.076 50.7772 135.041 50.8119C135.006 50.8466 135.031 50.8797 135.113 50.9092C135.17 50.9394 135.282 50.9661 135.442 50.9875C135.602 51.0089 135.806 51.0247 136.043 51.0338C136.28 51.0429 136.544 51.0451 136.819 51.0404C137.095 51.0357 137.375 51.0242 137.644 51.0064Z" fill="#C98D34"/>
<defs>
<filter id="filter0_d_115_630" x="28.7861" y="5.56006" width="268.272" height="132.632" filterUnits="userSpaceOnUse" color-interpolation-filters="sRGB">
<feFlood flood-opacity="0" result="BackgroundImageFix"/>
<feColorMatrix in="SourceAlpha" type="matrix" values="0 0 0 0 0 0 0 0 0 0 0 0 0 0 0 0 0 0 127 0" result="hardAlpha"/>
<feOffset dy="4"/>
<feGaussianBlur stdDeviation="2"/>
<feComposite in2="hardAlpha" operator="out"/>
<feColorMatrix type="matrix" values="0 0 0 0 0 0 0 0 0 0 0 0 0 0 0 0 0 0 0.25 0"/>
<feBlend mode="normal" in2="BackgroundImageFix" result="effect1_dropShadow_115_630"/>
<feBlend mode="normal" in="SourceGraphic" in2="effect1_dropShadow_115_630" result="shape"/>
</filter>
<filter id="filter1_d_115_630" x="183.31" y="4.01025" width="26.3016" height="28.0406" filterUnits="userSpaceOnUse" color-interpolation-filters="sRGB">
<feFlood flood-opacity="0" result="BackgroundImageFix"/>
<feColorMatrix in="SourceAlpha" type="matrix" values="0 0 0 0 0 0 0 0 0 0 0 0 0 0 0 0 0 0 127 0" result="hardAlpha"/>
<feOffset dy="4"/>
<feGaussianBlur stdDeviation="2"/>
<feComposite in2="hardAlpha" operator="out"/>
<feColorMatrix type="matrix" values="0 0 0 0 0 0 0 0 0 0 0 0 0 0 0 0 0 0 0.25 0"/>
<feBlend mode="normal" in2="BackgroundImageFix" result="effect1_dropShadow_115_630"/>
<feBlend mode="normal" in="SourceGraphic" in2="effect1_dropShadow_115_630" result="shape"/>
</filter>
</defs>
</svg>
