<svg width="24" height="24" viewBox="0 0 24 24" fill="none" xmlns="http://www.w3.org/2000/svg">
<g opacity="0.3" clip-path="url(#clip0_85_2103)">
<path fill-rule="evenodd" clip-rule="evenodd" d="M22 21.08C21.8949 20.5884 21.668 20.1311 21.34 19.75C20.93 19.26 20.39 18.87 19.93 18.42L19.05 17.54C18.16 16.71 17.7 17.13 18.3 17.82C18.66 18.2 18.99 18.61 19.3 18.99C19.61 19.37 20.19 19.85 20.56 20.34C20.7635 20.6101 20.8975 20.926 20.95 21.26C20.966 21.5493 20.8919 21.8364 20.7379 22.0818C20.5838 22.3272 20.3575 22.5187 20.09 22.63C19.847 22.7982 19.5617 22.8949 19.2664 22.909C18.9712 22.9232 18.678 22.8542 18.42 22.71C18.2033 22.545 18.0113 22.3496 17.85 22.13C17.5819 21.7337 17.3414 21.3194 17.13 20.89C16.77 20.21 16.41 19.53 16.13 18.82C16.134 18.7868 16.134 18.7533 16.13 18.72C15.63 17.92 15.25 18.22 15.51 19C15.51 19.15 15.6 19.3 15.66 19.45C15.8867 20.07 16.1367 20.68 16.41 21.28C16.6019 21.766 16.8292 22.2373 17.09 22.69C17.2946 23.0252 17.555 23.3228 17.86 23.57C18.2848 23.8439 18.7796 23.9896 19.285 23.9896C19.7904 23.9896 20.2852 23.8439 20.71 23.57C21.156 23.3392 21.5194 22.9758 21.7504 22.5299C21.9814 22.084 22.0686 21.5775 22 21.08Z" fill="#C98D34" stroke="#C98D34" stroke-width="0.5"/>
<path fill-rule="evenodd" clip-rule="evenodd" d="M15.69 17.67C15.7233 17.6252 15.7413 17.5709 15.7413 17.515C15.7413 17.4592 15.7233 17.4049 15.69 17.36C15.6704 17.3271 15.6446 17.2983 15.6138 17.2754C15.5831 17.2525 15.5481 17.2359 15.5109 17.2266C15.4737 17.2173 15.435 17.2154 15.3971 17.2212C15.3592 17.2269 15.3228 17.2401 15.29 17.26C14.978 17.4391 14.6409 17.5706 14.29 17.65C13.7275 17.7785 13.1557 17.8621 12.58 17.9C11.1085 18.0287 9.6262 17.8621 8.22 17.41C6.83108 16.9799 5.58846 16.1734 4.63 15.08C3.80245 14.0603 3.25324 12.8436 3.03592 11.5485C2.81861 10.2533 2.9406 8.92399 3.39 7.69004C3.78256 6.44044 4.43438 5.28773 5.30285 4.30725C6.17133 3.32676 7.23693 2.54057 8.43 2.00004C9.1637 1.68597 9.92771 1.44805 10.71 1.29004C11.4606 1.11982 12.233 1.06586 13 1.13004C15.0963 1.41826 16.9976 2.5124 18.3 4.18004C19.6345 5.85311 20.3608 7.92996 20.36 10.07C20.3482 10.9023 20.2442 11.7307 20.05 12.54C19.8647 13.3382 19.525 14.0924 19.05 14.76C18.5965 15.2793 18.1015 15.7609 17.57 16.2C17.2417 16.4938 16.8665 16.7304 16.46 16.9C16.3766 16.9255 16.3067 16.9828 16.2654 17.0597C16.2242 17.1365 16.2151 17.2265 16.24 17.31C16.2516 17.3486 16.2709 17.3844 16.2967 17.4153C16.3225 17.4462 16.3542 17.4716 16.39 17.49C17.5216 16.7988 18.6042 16.0303 19.63 15.19C20.1715 14.455 20.5592 13.6183 20.77 12.73C21.0043 11.8652 21.1352 10.9757 21.16 10.08C21.2141 7.73499 20.4584 5.44295 19.02 3.59004C17.6098 1.69015 15.5082 0.421995 13.17 0.0600387C12.2797 -0.0428019 11.3788 -0.00568618 10.5 0.170039C9.64328 0.343488 8.80585 0.601415 8 0.940039C6.65639 1.54695 5.45858 2.43498 4.48736 3.5442C3.51615 4.65342 2.79412 5.95804 2.37 7.37004C1.89016 8.7717 1.78818 10.2751 2.07434 11.7287C2.3605 13.1823 3.02469 14.5348 4 15.65C5.07724 16.8342 6.46195 17.6962 8 18.14C9.51206 18.5777 11.0955 18.7136 12.66 18.54C13.2666 18.485 13.8683 18.3848 14.46 18.24C14.8877 18.0908 15.2997 17.8999 15.69 17.67Z" fill="#C98D34" stroke="#C98D34" stroke-width="0.6"/>
</g>
<defs>
<clipPath id="clip0_85_2103">
<rect width="24" height="24" fill="white"/>
</clipPath>
</defs>
</svg>
