<svg width="24" height="24" viewBox="0 0 24 24" fill="none" xmlns="http://www.w3.org/2000/svg">
<g opacity="0.3" clip-path="url(#clip0_85_2097)">
<path d="M2.2216 10.1064C2.5408 10.7278 2.9137 11.32 3.3363 11.8762C3.7601 12.4369 4.2382 12.9544 4.7639 13.4211C5.9201 14.5049 7.3127 15.305 8.8314 15.7579C9.1034 15.8685 9.393 15.6431 9.3527 15.3524C9.3313 15.1977 9.2177 15.0717 9.0661 15.0344C7.7439 14.4704 6.5596 13.6264 5.595 12.5606C5.1531 12.0988 4.7416 11.6089 4.363 11.0939C4.0697 10.7224 3.9817 10.6539 3.7274 10.3117C3.043 9.50994 1.9772 9.64684 2.2216 10.1064Z" fill="#C98D34"/>
<path d="M21.4448 3.09578C21.289 2.96618 21.0628 2.96618 20.907 3.09578C20.7544 3.23868 20.7544 3.48088 20.907 3.62378C21.6699 4.30868 21.8307 5.44268 21.2883 6.31268C20.3048 7.60648 18.8827 8.49658 17.2892 8.81578C15.2024 9.25728 13.0764 9.48668 10.9434 9.50028C8.8497 9.57018 6.762 9.23828 4.7932 8.52248C4.5068 8.39298 4.232 8.23928 3.9719 8.06288C3.7153 7.92388 3.473 7.76018 3.2483 7.57398C2.075 6.59628 1.7621 5.78468 2.0652 5.02198C2.603 3.66288 4.5879 2.65578 6.2403 2.19618C7.0925 1.91528 7.9611 1.68668 8.8412 1.51178C9.7202 1.35518 10.6087 1.25718 11.5008 1.21848C12.879 1.15448 14.2601 1.21668 15.627 1.40418C16.9975 1.58988 18.3511 1.88418 19.675 2.28418C19.9196 2.36328 20.1581 2.14788 20.1042 1.89648C20.0792 1.77978 19.9939 1.68538 19.8803 1.64868C18.5308 1.17748 17.144 0.820976 15.7346 0.582876C14.3262 0.344476 12.8997 0.229976 11.4714 0.240676C10.5315 0.258076 9.5939 0.339776 8.6652 0.485076C7.7387 0.627076 6.8213 0.822976 5.9176 1.07178C3.9132 1.62908 1.5568 2.91978 0.8919 4.54288C0.5753 5.34948 0.655 6.25788 1.107 6.99708C1.4364 7.50318 1.8459 7.95228 2.3194 8.32688C2.7594 8.69848 3.2092 9.09938 3.2972 9.17758C3.6113 9.35468 3.9381 9.50838 4.275 9.63718C5.9727 10.2632 7.7652 10.5939 9.5746 10.6149C12.2291 10.6629 14.8785 10.3637 17.4555 9.72518C19.1236 9.28758 20.6264 8.36958 21.7772 7.08508C21.8915 6.94498 21.9808 6.78628 22.0412 6.61578C22.491 5.49138 22.755 4.01488 21.4448 3.09578Z" fill="#C98D34"/>
<path d="M21.6892 7.96504C21.424 8.72704 21.0305 9.43804 20.5257 10.0673C20.1712 10.6228 19.7687 11.1463 19.323 11.6317C18.8735 12.125 18.3864 12.5827 17.8661 13.0006C16.6409 13.9995 15.2467 14.7711 13.7497 15.2788C13.6306 15.3171 13.5387 15.4126 13.5052 15.5331C13.4717 15.6536 13.4368 15.4842 13.3977 15.4842C13.1639 15.4597 12.9639 15.6504 12.9772 15.8851C12.9088 16.6184 12.9772 17.7037 12.9772 18.6131C12.9715 18.9522 12.8914 19.286 12.7425 19.5908C12.6275 19.7712 12.4931 19.9384 12.3417 20.0895C11.9114 20.5295 11.3639 20.9695 10.9825 21.3313L10.4839 21.8984L10.4057 20.7837C10.3177 19.8059 10.2297 18.8282 10.1905 17.8504C10.1905 17.1855 10.1319 16.5304 10.1221 15.8948C10.1277 15.7148 9.989 15.5631 9.8092 15.5526C9.6238 15.547 9.4677 15.6901 9.4572 15.8753C9.3888 16.7064 9.3399 17.5473 9.3105 18.3784C9.2811 19.2095 9.2225 19.894 9.2128 20.774V22.3384C9.2128 22.5437 9.115 22.9349 9.1443 23.1109C9.1629 23.2906 9.2463 23.4575 9.379 23.5802C9.5709 23.76 9.8506 23.8098 10.0928 23.7073C10.3627 23.608 10.6115 23.4587 10.8261 23.2673C11.1983 22.9115 11.5477 22.5327 11.8723 22.1331C12.195 21.7517 12.7328 21.2726 13.1434 20.7935C13.3449 20.5565 13.5187 20.2973 13.6617 20.0211C13.8545 19.5767 13.9543 19.0975 13.955 18.6131C13.955 17.7331 13.7985 16.726 13.7985 15.9926C13.8629 16.0076 13.9298 16.0076 13.9941 15.9926C15.6455 15.6011 17.208 14.9011 18.5995 13.9295C19.2091 13.5036 19.7698 13.0118 20.2715 12.4628C20.6788 12.0093 21.0422 11.5183 21.3568 10.9962C21.6306 11.189 21.8469 11.4526 21.9826 11.7588C22.2902 12.5358 22.3247 13.3943 22.0804 14.1935C21.8174 14.8646 21.3741 15.45 20.7995 15.8851C20.2187 16.367 19.5564 16.7412 18.8439 16.9899C17.4538 17.6218 15.8213 17.3683 14.6883 16.3446C14.471 16.1472 14.1216 16.2591 14.0593 16.546C14.0378 16.6449 14.0566 16.7484 14.1114 16.8335C15.3852 18.2591 17.3964 18.7696 19.1959 18.1242C20.0952 17.8853 20.9324 17.4551 21.6501 16.8628C22.3982 16.2539 22.9438 15.4322 23.2146 14.5064C23.4167 13.435 23.255 12.3268 22.755 11.3579C22.5081 10.9412 22.1489 10.6024 21.7186 10.3802C22.2462 9.58504 22.5347 8.65524 22.5497 7.70104C22.5203 7.26104 22.0217 7.43704 21.6892 7.96504Z" fill="#C98D34"/>
</g>
<defs>
<clipPath id="clip0_85_2097">
<rect width="24" height="24" fill="white"/>
</clipPath>
</defs>
</svg>
