<svg width="33" height="32" viewBox="0 0 33 32" fill="none" xmlns="http://www.w3.org/2000/svg">
<path fill-rule="evenodd" clip-rule="evenodd" d="M6.17256 11.92C5.87006 11.9567 5.56756 11.9567 5.26506 11.92C4.77006 11.7687 3.72781 11.2187 2.86156 11.5625C2.64987 11.6373 2.46316 11.7695 2.32232 11.9443C2.18148 12.1192 2.09206 12.3297 2.06406 12.5525C1.51543 16.3571 4.95018 18.3481 9.70218 15.2984C9.70218 15.7384 9.83968 16.2471 9.88093 16.7559C10.0047 18.1281 9.96343 17.2907 8.41106 20.3542C8.25363 20.6339 8.13783 20.935 8.06731 21.248C7.86776 22.7542 8.1265 24.2855 8.80981 25.6425C9.07078 26.1597 9.46072 26.6009 9.94196 26.9234C10.4232 27.2459 10.9795 27.4389 11.5571 27.4836C11.9563 27.5507 12.3661 27.4648 12.7049 27.2431C13.0436 27.0214 13.2862 26.6801 13.3844 26.2874C13.7694 25.1475 13.1094 22.9502 12.9582 21.9204C12.9582 21.5079 12.7382 21.8241 13.3157 20.6829C13.8141 21.2905 14.4454 21.7756 15.1609 22.1008C15.8763 22.4261 16.6569 22.5828 17.4424 22.5589C18.228 22.5349 18.9976 22.3311 19.6919 21.9629C20.3863 21.5948 20.9868 21.0722 21.4474 20.4354C21.7414 19.9004 21.8792 19.2937 21.8452 18.6842C21.8112 18.0748 21.6066 17.4871 21.2549 16.9882C21.1377 16.8554 20.9905 16.7523 20.8255 16.6878C20.6605 16.6232 20.4825 16.5989 20.3062 16.617C19.6751 16.7545 18.8377 17.6757 17.9302 17.8132C17.0455 17.8457 16.1815 17.541 15.5129 16.9607C15.7301 15.88 15.5951 14.7582 15.1279 13.7597C14.6879 12.5649 14.3318 12.3861 14.5092 12.3861C16.0079 12.8674 15.6779 13.9536 16.9567 14.8597C17.9577 15.5747 19.4001 14.351 19.4276 14.3235C20.6238 13.141 19.8126 9.11775 16.5016 8.6365C15.4044 8.55321 14.301 8.64606 13.2332 8.9115C13.6338 8.09318 13.7203 7.15636 13.4763 6.27852C13.2324 5.40068 12.675 4.6428 11.9096 4.14845C11.1443 3.65411 10.2243 3.45764 9.32376 3.59626C8.42327 3.73489 7.6049 4.19898 7.02368 4.90062C6.62422 5.31111 6.33284 5.8143 6.17565 6.36508C6.01846 6.91587 6.00037 7.49705 6.12301 8.05654C6.24564 8.61604 6.50517 9.13637 6.87834 9.5709C7.2515 10.0054 7.72664 10.3406 8.26118 10.5464C8.12368 10.6014 7.99077 10.6655 7.86243 10.7389C7.28493 11.0689 6.54381 11.9062 6.17256 11.92ZM20.1549 18.5269C20.1346 18.8182 20.0933 19.1077 20.0312 19.3931C18.6576 21.3016 16.1303 21.7829 13.8904 19.6956C14.2892 19.0219 14.6604 18.3894 15.0317 17.8119C16.8439 19.2281 17.7239 19.6681 20.1549 18.5269ZM7.64243 7.11162C7.99033 6.26764 8.62878 5.57602 9.44231 5.16187C11.4746 4.07562 13.5632 7.08412 12.0658 8.8015C12.0138 8.85582 11.9745 8.92099 11.9508 8.99232C11.927 9.06364 11.9193 9.13935 11.9283 9.214C11.8416 9.24987 11.7676 9.31103 11.7161 9.38951C11.6646 9.46798 11.638 9.56014 11.6396 9.654C11.7496 10.6289 13.9468 9.5165 16.2554 10.1077C16.7441 10.239 17.1815 10.5153 17.5099 10.9002C17.8384 11.2851 18.0424 11.7605 18.0952 12.2637C18.7689 15.4634 16.2692 11.865 16.2417 11.8375C15.4361 11.2939 14.4538 11.0776 13.4944 11.2325C13.4367 11.1946 13.372 11.1684 13.3041 11.1555C13.2362 11.1426 13.1664 11.1431 13.0987 11.1572C13.0311 11.1712 12.9668 11.1985 12.9097 11.2373C12.8525 11.2762 12.8036 11.326 12.7657 11.3837C12.7278 11.4415 12.7016 11.5062 12.6887 11.5741C12.6758 11.642 12.6763 11.7118 12.6904 11.7794C12.7044 11.8471 12.7317 11.9114 12.7705 11.9685C12.8094 12.0256 12.8592 12.0746 12.9169 12.1125C13.7976 13.118 14.3152 14.3899 14.3868 15.7246C14.3868 15.9996 14.2768 16.2884 14.3868 16.3434C13.278 17.8108 12.2858 19.3629 11.4196 20.9854C11.0071 22.0029 12.2446 25.7525 11.7771 25.725C11.3923 25.6805 11.028 25.5278 10.7265 25.2847C10.4249 25.0416 10.1985 24.718 10.0734 24.3514C9.69752 23.4568 9.51929 22.4915 9.55093 21.5216L10.9259 18.3481C11.0704 17.1479 10.9579 15.9307 10.5959 14.7772C10.5959 14.7772 10.7059 14.5297 10.5959 14.2822C10.5177 14.1676 10.398 14.0878 10.2621 14.0596C10.1262 14.0314 9.98461 14.057 9.86718 14.131C7.29868 15.616 3.63156 16.1646 3.76768 13.251C4.57547 13.5897 5.46799 13.6713 6.32381 13.4847C8.05356 13.2235 7.54618 11.4525 11.1721 10.6151C11.2763 10.5777 11.3638 10.5046 11.4192 10.4087C11.4745 10.3128 11.494 10.2004 11.4742 10.0914C11.4544 9.98251 11.3966 9.88414 11.311 9.81385C11.2255 9.74357 11.1178 9.70592 11.0071 9.70762C10.7871 9.70762 10.5946 9.80387 10.3883 9.84512C10.3122 9.82495 10.2321 9.82495 10.1559 9.84512C9.78992 9.91919 9.41099 9.89753 9.0558 9.78226C8.70061 9.66698 8.38118 9.46199 8.12842 9.1871C7.87566 8.91222 7.69812 8.57675 7.61298 8.21316C7.52785 7.84956 7.53799 7.47015 7.64243 7.11162Z" fill="#040E1A"/>
<path fill-rule="evenodd" clip-rule="evenodd" d="M21.0088 4.76312C20.4778 4.72595 19.9442 4.77235 19.4276 4.90062C17.1478 5.35437 17.1891 5.68437 17.2028 5.91675C17.2166 6.14912 17.2028 6.43925 19.5376 6.57675C20.0509 6.60608 20.5597 6.574 21.0638 6.4805C23.1098 6.10925 23.3711 6.068 23.3711 5.6005C23.3711 5.133 23.1098 4.89925 21.0074 4.76175M20.3763 9.92762C20.2678 9.94644 20.1694 10.003 20.0985 10.0872C20.0276 10.1715 19.9887 10.2781 19.9887 10.3882C19.9887 10.4984 20.0276 10.605 20.0985 10.6893C20.1694 10.7735 20.2678 10.8301 20.3763 10.8489C25.5271 11.3576 25.9671 10.5876 28.6181 10.6289C28.7535 10.6391 28.8876 10.5966 28.9925 10.5103C29.0973 10.424 29.1648 10.3005 29.1807 10.1657C29.1967 10.0308 29.16 9.895 29.0782 9.78659C28.9964 9.67818 28.8759 9.60555 28.7418 9.58387C25.9674 9.00999 23.0943 9.12804 20.3763 9.92762Z" fill="#C98D34"/>
</svg>
