<svg width="27" height="27" viewBox="0 0 27 27" fill="none" xmlns="http://www.w3.org/2000/svg">
<g clip-path="url(#clip0_106_192)">
<path d="M26.5275 5.72627C26.4275 5.12241 26.1494 4.5622 25.7288 4.11752C25.1523 3.87153 24.533 3.74155 23.9063 3.73502C19.45 3.49325 14.9831 3.51955 10.53 3.81377C6.0075 4.10627 1.9125 4.70252 0.618753 5.62502C0.401809 5.82593 0.262428 6.09672 0.225003 6.39002C0.0379125 7.85216 -0.037306 9.32644 3.20747e-06 10.8C-0.0178546 14.5912 0.169921 18.3805 0.562503 22.1513C0.569704 22.1972 0.586007 22.2412 0.610454 22.2807C0.6349 22.3202 0.666998 22.3545 0.70486 22.3814C0.742723 22.4083 0.785587 22.4274 0.830935 22.4376C0.876283 22.4477 0.923201 22.4487 0.968931 22.4404C1.01466 22.4322 1.05828 22.4149 1.09723 22.3896C1.13618 22.3642 1.16967 22.3313 1.19574 22.2929C1.22181 22.2544 1.23993 22.2111 1.24903 22.1656C1.25814 22.12 1.25804 22.0731 1.24875 22.0275C1.08 20.9588 0.922503 17.5275 0.900003 14.0288C0.849791 11.7351 0.924903 9.44047 1.125 7.15502C2.97 8.39252 6.615 10.8113 9.59625 12.4313L11.2388 13.2413C12.1212 13.7246 13.0868 14.0375 14.085 14.1638C14.539 14.0907 14.9746 13.9302 15.3675 13.6913C15.6735 13.5278 15.9702 13.3475 16.2563 13.1513L17.8763 12.0263C18.2588 11.745 18.63 11.475 19.0013 11.16C21.1868 9.4868 23.23 7.63548 25.11 5.62502C25.11 5.74877 25.1888 5.89502 25.2225 6.05252C25.5505 7.81443 25.705 9.60423 25.6838 11.3963C25.7418 14.4655 25.6065 17.5353 25.2788 20.5875C25.2788 20.835 25.2 21.0938 25.1663 21.24H24.39C22.3763 21.4425 18.09 21.7575 13.725 22.0275C8.78625 22.3313 3.7575 22.59 1.845 22.635C1.7933 22.635 1.74209 22.6452 1.69432 22.665C1.64655 22.6848 1.60314 22.7138 1.56658 22.7504C1.53002 22.7869 1.50101 22.8303 1.48123 22.8781C1.46144 22.9259 1.45125 22.9771 1.45125 23.0288C1.45418 23.1342 1.49814 23.2344 1.57378 23.3079C1.64942 23.3814 1.75076 23.4226 1.85625 23.4225C4.41 23.4225 12.4875 23.0963 18.54 22.77C21.42 22.6238 23.8388 22.4663 24.9863 22.3538C25.3182 22.3354 25.6449 22.2632 25.9538 22.14C26.0783 22.0602 26.1732 21.9416 26.2238 21.8025C26.3469 21.4608 26.43 21.1059 26.4713 20.745C26.8459 17.6319 27.0225 14.4981 27 11.3625C27.0249 9.47292 26.8667 7.58535 26.5275 5.72627ZM19.4063 9.41627C18.0225 10.4513 16.6163 11.4188 15.5363 12.0713C15.0748 12.411 14.5568 12.6662 14.0063 12.825C13.507 12.7615 13.0231 12.609 12.5775 12.375C11.565 11.9588 10.26 11.3175 8.87625 10.5863C6.0075 9.11252 2.835 7.30127 1.27125 6.39002C2.59875 5.61377 6.4125 5.26502 10.5975 5.04002C14.9966 4.79604 19.4059 4.79604 23.805 5.04002H24.5025C22.9185 6.62729 21.2147 8.09035 19.4063 9.41627Z" fill="#040E1A"/>
<path d="M19.89 16.2112C20.2725 16.5825 20.6662 16.9425 21.015 17.28C22.14 18.3262 23.265 19.2375 23.7825 19.7437C23.858 19.8166 23.9588 19.8573 24.0637 19.8573C24.1687 19.8573 24.2695 19.8166 24.345 19.7437C24.3824 19.7071 24.4121 19.6633 24.4324 19.615C24.4527 19.5667 24.4632 19.5149 24.4632 19.4625C24.4632 19.4101 24.4527 19.3583 24.4324 19.31C24.4121 19.2617 24.3824 19.2179 24.345 19.1812C23.8612 18.6075 22.9612 17.5387 21.8925 16.38C21.5325 15.9975 21.1575 15.6225 20.7675 15.255C20.385 14.8837 19.9912 14.5125 19.6425 14.13C19.2937 13.7475 18.7312 13.365 18.3037 13.005C17.5275 12.4762 16.9537 13.005 17.505 13.6687C17.8875 14.085 18.3037 14.5462 18.765 15.0187C19.2262 15.4912 19.5075 15.84 19.89 16.2112Z" fill="#C98D34"/>
<path d="M5.16377 17.2688C3.99519 18.4261 2.89103 19.6467 1.85627 20.925C1.82229 20.9642 1.79636 21.0096 1.77995 21.0588C1.76354 21.108 1.75697 21.1599 1.76063 21.2116C1.76428 21.2633 1.77809 21.3138 1.80126 21.3602C1.82442 21.4066 1.8565 21.4479 1.89565 21.4819C1.9348 21.5159 1.98026 21.5418 2.02943 21.5582C2.0786 21.5746 2.13053 21.5812 2.18224 21.5775C2.23395 21.5739 2.28443 21.5601 2.33081 21.5369C2.37718 21.5137 2.41854 21.4817 2.45252 21.4425C3.11627 20.7675 4.35377 19.7438 5.70377 18.54C6.41252 17.8988 7.15502 17.2238 7.84127 16.5263C8.52752 15.8288 9.43877 14.8163 10.0913 14.04C10.7438 13.2638 9.93377 12.915 9.16877 13.6013C8.58377 14.1188 7.95377 14.6588 7.29002 15.255C6.62627 15.8513 5.85002 16.5938 5.16377 17.2688Z" fill="#C98D34"/>
</g>
<defs>
<clipPath id="clip0_106_192">
<rect width="27" height="27" fill="white"/>
</clipPath>
</defs>
</svg>
