<svg width="33" height="33" viewBox="0 0 33 33" fill="none" xmlns="http://www.w3.org/2000/svg">
<g clip-path="url(#clip0_85_1851)">
<path fill-rule="evenodd" clip-rule="evenodd" d="M6.1737 12.5579C5.8712 12.5945 5.5687 12.5945 5.2662 12.5579C4.7712 12.4066 3.72895 11.8566 2.8627 12.2004C2.65101 12.2752 2.46431 12.4074 2.32346 12.5822C2.18262 12.757 2.0932 12.9676 2.0652 13.1904C1.51658 16.995 4.95133 18.986 9.70333 15.9363C9.70333 16.3763 9.84083 16.885 9.88208 17.3937C10.0058 18.766 9.96458 17.9286 8.4122 20.9921C8.25478 21.2717 8.13897 21.5728 8.06845 21.8859C7.8689 23.392 8.12764 24.9234 8.81095 26.2804C9.07192 26.7976 9.46186 27.2387 9.9431 27.5613C10.4243 27.8838 10.9806 28.0767 11.5582 28.1215C11.9574 28.1886 12.3673 28.1027 12.706 27.881C13.0447 27.6593 13.2874 27.318 13.3856 26.9253C13.7706 25.7854 13.1106 23.5881 12.9593 22.5583C12.9593 22.1458 12.7393 22.462 13.3168 21.3207C13.8153 21.9284 14.4466 22.4135 15.162 22.7387C15.8775 23.0639 16.658 23.2206 17.4436 23.1967C18.2291 23.1728 18.9987 22.9689 19.693 22.6008C20.3874 22.2326 20.988 21.7101 21.4486 21.0732C21.7426 20.5383 21.8804 19.9316 21.8463 19.3221C21.8123 18.7127 21.6078 18.125 21.2561 17.6261C21.1389 17.4932 20.9916 17.3902 20.8266 17.3257C20.6616 17.2611 20.4836 17.2368 20.3073 17.2549C19.6762 17.3924 18.8388 18.3136 17.9313 18.4511C17.0467 18.4836 16.1827 18.1789 15.5141 17.5986C15.7312 16.5179 15.5963 15.396 15.1291 14.3976C14.6891 13.2028 14.333 13.024 14.5103 13.024C16.0091 13.5053 15.6791 14.5915 16.9578 15.4976C17.9588 16.2126 19.4012 14.9889 19.4287 14.9614C20.625 13.7789 19.8137 9.75563 16.5027 9.27438C15.4055 9.19109 14.3021 9.28393 13.2343 9.54938C13.6349 8.73106 13.7214 7.79424 13.4775 6.9164C13.2335 6.03856 12.6761 5.28068 11.9108 4.78633C11.1455 4.29199 10.2254 4.09552 9.3249 4.23414C8.42441 4.37277 7.60604 4.83686 7.02483 5.5385C6.62536 5.94899 6.33398 6.45218 6.17679 7.00296C6.0196 7.55375 6.00151 8.13493 6.12415 8.69442C6.24679 9.25391 6.50632 9.77424 6.87948 10.2088C7.25265 10.6433 7.72779 10.9785 8.26233 11.1843C8.12483 11.2393 7.99191 11.3034 7.86358 11.3768C7.28608 11.7068 6.54495 12.5441 6.1737 12.5579ZM20.1561 19.1647C20.1358 19.4561 20.0944 19.7456 20.0323 20.031C18.6587 21.9395 16.1315 22.4207 13.8916 20.3335C14.2903 19.6597 14.6616 19.0273 15.0328 18.4497C16.8451 19.866 17.7251 20.306 20.1561 19.1647ZM7.64358 7.7495C7.99147 6.90551 8.62993 6.2139 9.44345 5.79975C11.4757 4.7135 13.5643 7.722 12.067 9.43938C12.015 9.4937 11.9757 9.55887 11.9519 9.6302C11.9281 9.70152 11.9205 9.77723 11.9295 9.85188C11.8427 9.88775 11.7688 9.94891 11.7173 10.0274C11.6658 10.1059 11.6391 10.198 11.6407 10.2919C11.7507 11.2668 13.948 10.1544 16.2566 10.7456C16.7452 10.8769 17.1827 11.1532 17.5111 11.5381C17.8395 11.923 18.0436 12.3984 18.0963 12.9016C18.7701 16.1013 16.2703 12.5029 16.2428 12.4754C15.4373 11.9318 14.4549 11.7155 13.4956 11.8704C13.4378 11.8325 13.3731 11.8063 13.3052 11.7934C13.2373 11.7804 13.1675 11.781 13.0999 11.7951C13.0322 11.8091 12.968 11.8364 12.9108 11.8752C12.8537 11.9141 12.8047 11.9638 12.7668 12.0216C12.7289 12.0794 12.7027 12.1441 12.6898 12.212C12.6769 12.2799 12.6775 12.3497 12.6915 12.4173C12.7056 12.485 12.7328 12.5492 12.7717 12.6064C12.8105 12.6635 12.8603 12.7125 12.9181 12.7504C13.7987 13.7558 14.3163 15.0278 14.388 16.3625C14.388 16.6375 14.278 16.9263 14.388 16.9813C13.2791 18.4487 12.287 20.0008 11.4207 21.6232C11.0082 22.6407 12.2457 26.3904 11.7782 26.3629C11.3934 26.3184 11.0292 26.1657 10.7276 25.9226C10.4261 25.6795 10.1997 25.3558 10.0746 24.9893C9.69866 24.0946 9.52043 23.1294 9.55208 22.1595L10.9271 18.986C11.0715 17.7858 10.959 16.5686 10.5971 15.4151C10.5971 15.4151 10.7071 15.1676 10.5971 14.9201C10.5188 14.8055 10.3991 14.7257 10.2632 14.6975C10.1273 14.6693 9.98576 14.6949 9.86833 14.7689C7.29983 16.2539 3.6327 16.8025 3.76883 13.8889C4.57661 14.2276 5.46913 14.3092 6.32495 14.1226C8.0547 13.8614 7.54733 12.0904 11.1732 11.253C11.2774 11.2156 11.365 11.1425 11.4203 11.0466C11.4756 10.9507 11.4951 10.8382 11.4753 10.7293C11.4555 10.6204 11.3977 10.522 11.3122 10.4517C11.2266 10.3814 11.1189 10.3438 11.0082 10.3455C10.7882 10.3455 10.5957 10.4418 10.3895 10.483C10.3133 10.4628 10.2332 10.4628 10.1571 10.483C9.79107 10.5571 9.41214 10.5354 9.05694 10.4201C8.70175 10.3049 8.38233 10.0999 8.12956 9.82498C7.8768 9.5501 7.69927 9.21463 7.61413 8.85104C7.52899 8.48744 7.53913 8.10803 7.64358 7.7495Z" fill="#040E1A"/>
<path fill-rule="evenodd" clip-rule="evenodd" d="M21.01 5.40097C20.4789 5.3638 19.9454 5.41019 19.4287 5.53847C17.149 5.99222 17.1902 6.32222 17.204 6.5546C17.2177 6.78697 17.204 7.0771 19.5387 7.2146C20.052 7.24393 20.5608 7.21185 21.065 7.11835C23.111 6.7471 23.3722 6.70585 23.3722 6.23835C23.3722 5.77085 23.111 5.5371 21.0086 5.3996M20.3775 10.5655C20.2689 10.5843 20.1706 10.6408 20.0996 10.7251C20.0287 10.8094 19.9898 10.916 19.9898 11.0261C19.9898 11.1362 20.0287 11.2428 20.0996 11.3271C20.1706 11.4114 20.2689 11.4679 20.3775 11.4867C25.5282 11.9955 25.9682 11.2255 28.6192 11.2667C28.7546 11.277 28.8888 11.2345 28.9936 11.1482C29.0985 11.0619 29.1659 10.9384 29.1819 10.8035C29.1978 10.6687 29.1611 10.5328 29.0793 10.4244C28.9975 10.316 28.877 10.2434 28.743 10.2217C25.9685 9.64783 23.0955 9.76589 20.3775 10.5655Z" fill="#C98D34"/>
</g>
<defs>
<clipPath id="clip0_85_1851">
<rect width="33" height="33" fill="white"/>
</clipPath>
</defs>
</svg>
