<svg width="63" height="15" viewBox="0 0 63 15" fill="none" xmlns="http://www.w3.org/2000/svg">
<path d="M52.5781 11.8269L53.3531 8.50627L50.7762 6.27377L54.1706 5.98002L55.5 2.84814L56.8294 5.97939L60.2231 6.27314L57.6462 8.50564L58.4219 11.8263L55.5 10.0638L52.5781 11.8269Z" fill="#040E1A"/>
<path d="M40.5781 11.8269L41.3531 8.50627L38.7762 6.27377L42.1706 5.98002L43.5 2.84814L44.8294 5.97939L48.2231 6.27314L45.6462 8.50564L46.4219 11.8263L43.5 10.0638L40.5781 11.8269Z" fill="#040E1A"/>
<path d="M28.5781 11.8269L29.3531 8.50627L26.7762 6.27377L30.1706 5.98002L31.5 2.84814L32.8294 5.97939L36.2231 6.27314L33.6462 8.50564L34.4219 11.8263L31.5 10.0638L28.5781 11.8269Z" fill="#040E1A"/>
<path d="M20.7831 5.99854L20.7948 6.02686L20.8251 6.02881L24.1014 6.31201L21.6132 8.46826L21.5907 8.48779L21.5975 8.51709L22.3456 11.7212L19.5262 10.021L19.4999 10.0054L19.4745 10.021L16.6532 11.7222L17.4022 8.51807L17.4091 8.48779L17.3856 8.46826L14.8983 6.31299L18.1747 6.02979L18.205 6.02686L18.2167 5.99951L19.4999 2.9751L20.7831 5.99854Z" stroke="#040E1A" stroke-width="0.1"/>
<path d="M8.78308 5.99854L8.7948 6.02686L8.82507 6.02881L12.1014 6.31201L9.61316 8.46826L9.5907 8.48779L9.59753 8.51709L10.3456 11.7212L7.52625 10.021L7.49988 10.0054L7.47449 10.021L4.6532 11.7222L5.40222 8.51807L5.40906 8.48779L5.38562 8.46826L2.89832 6.31299L6.17468 6.02979L6.20496 6.02686L6.21667 5.99951L7.49988 2.9751L8.78308 5.99854Z" stroke="black" stroke-width="0.1"/>
</svg>
