<svg width="63" height="15" viewBox="0 0 63 15" fill="none" xmlns="http://www.w3.org/2000/svg">
<path d="M52.5781 11.8269L53.3531 8.50627L50.7762 6.27377L54.1706 5.98002L55.5 2.84814L56.8294 5.97939L60.2231 6.27314L57.6462 8.50564L58.4219 11.8263L55.5 10.0638L52.5781 11.8269Z" fill="#040E1A"/>
<path d="M40.5781 11.8269L41.3531 8.50627L38.7762 6.27377L42.1706 5.98002L43.5 2.84814L44.8294 5.97939L48.2231 6.27314L45.6462 8.50564L46.4219 11.8263L43.5 10.0638L40.5781 11.8269Z" fill="#040E1A"/>
<path d="M28.5781 11.8269L29.3531 8.50627L26.7762 6.27377L30.1706 5.98002L31.5 2.84814L32.8294 5.97939L36.2231 6.27314L33.6462 8.50564L34.4219 11.8263L31.5 10.0638L28.5781 11.8269Z" fill="#040E1A"/>
<path d="M16.5781 11.8269L17.3531 8.50627L14.7762 6.27377L18.1706 5.98002L19.5 2.84814L20.8294 5.97939L24.2231 6.27314L21.6462 8.50564L22.4219 11.8263L19.5 10.0638L16.5781 11.8269Z" fill="#040E1A"/>
<path d="M4.57812 11.8269L5.35312 8.50627L2.77625 6.27377L6.17062 5.98002L7.5 2.84814L8.82937 5.97939L12.2231 6.27314L9.64625 8.50564L10.4219 11.8263L7.5 10.0638L4.57812 11.8269Z" fill="#040E1A"/>
</svg>
