<svg width="32" height="32" viewBox="0 0 32 32" fill="none" xmlns="http://www.w3.org/2000/svg">
<g clip-path="url(#clip0_94_2330)">
<path fill-rule="evenodd" clip-rule="evenodd" d="M9.74667 15.5466C9.58667 15.36 9.45333 15.2266 9.37333 15.1466L9.04 13.8933C9.02301 13.8014 8.97436 13.7183 8.90251 13.6586C8.83066 13.5988 8.74014 13.566 8.64667 13.566C8.5532 13.566 8.46268 13.5988 8.39082 13.6586C8.31897 13.7183 8.27033 13.8014 8.25333 13.8933L8 15.6133C8.0054 15.7951 8.08202 15.9675 8.21333 16.0933C8.42418 16.3499 8.67121 16.5745 8.94667 16.76C9.37118 17.0468 9.81691 17.3009 10.28 17.52C10.3241 17.5571 10.3753 17.5849 10.4304 17.6017C10.4856 17.6186 10.5436 17.624 10.6009 17.6178C10.6582 17.6115 10.7137 17.5938 10.764 17.5655C10.8142 17.5372 10.8582 17.4991 10.8933 17.4533C10.9308 17.4081 10.9589 17.3558 10.9759 17.2996C10.9928 17.2434 10.9984 17.1843 10.9922 17.1259C10.9859 17.0675 10.9681 17.011 10.9397 16.9596C10.9113 16.9082 10.8728 16.863 10.8267 16.8266C10.32 16.2933 10.0133 15.84 9.74667 15.5466Z" fill="#C98D34"/>
<path fill-rule="evenodd" clip-rule="evenodd" d="M31.4533 18.5733C31.7911 18.0174 31.9794 17.3835 32 16.7333C32.0066 16.0563 31.8116 15.3926 31.44 14.8267C31.44 14.8267 31.44 14.8267 31.36 14.72C31.4385 14.6278 31.5099 14.5298 31.5733 14.4267C31.9332 13.7243 32.0504 12.9226 31.9067 12.1467C31.8565 11.7322 31.7097 11.3353 31.4781 10.9879C31.2465 10.6405 30.9366 10.3524 30.5733 10.1467C30.4066 10.0821 30.2315 10.0417 30.0533 10.0267C30.2698 9.17454 30.1995 8.27483 29.8533 7.46666C29.644 7.03453 29.3265 6.66383 28.9317 6.39051C28.5369 6.11719 28.0782 5.95052 27.6 5.90666C25.9088 5.66643 24.2013 5.55943 22.4933 5.58666C20.7576 5.61426 19.029 5.81526 17.3333 6.18666C17.0104 6.26686 16.7036 6.40218 16.4267 6.58666C15.5333 7.17333 14.92 8.37333 14.0667 8.6L12.24 8.70667V8.50667C12.2673 8.16059 12.1832 7.81485 12 7.52C11.2375 7.1313 10.3886 6.94317 9.53333 6.97333C8.77881 6.91756 8.02119 6.91756 7.26667 6.97333C6.80251 6.99197 6.34779 7.1102 5.93333 7.32C5.67244 7.71388 5.54614 8.18167 5.57333 8.65333C5.51183 8.63998 5.44817 8.63998 5.38667 8.65333C4.78667 8.56 4.24 8.46667 3.61333 8.41333H2.84C2.58948 8.42159 2.33991 8.44833 2.09333 8.49333C1.57333 8.57333 1.04 8.74667 0.373333 8.89333C0.280513 8.89872 0.19247 8.93628 0.124338 8.99954C0.0562057 9.06281 0.0122405 9.14783 0 9.24C0.00166734 9.29197 0.0137995 9.34307 0.0356709 9.39024C0.0575422 9.43742 0.0887034 9.47969 0.12729 9.51455C0.165878 9.5494 0.211098 9.57611 0.260246 9.59308C0.309395 9.61006 0.361462 9.61694 0.413333 9.61333C1.08 9.70667 1.64 9.81333 2.17333 9.85333C2.41759 9.86679 2.66241 9.86679 2.90667 9.85333C3.17333 9.85333 3.41333 9.85333 3.65333 9.77333C4.25333 9.68 4.77333 9.57333 5.36 9.49333C5.42613 9.50533 5.49387 9.50533 5.56 9.49333C5.57149 9.85664 5.61612 10.2181 5.69333 10.5733C4.62062 11.2403 3.83232 12.2803 3.48 13.4933C2.99788 15.1599 3.18442 16.9488 4 18.48C4.38687 19.149 4.93744 19.7088 5.6 20.1067C5.59375 20.1464 5.59375 20.1869 5.6 20.2267C5.6 20.8 5.42667 21.4 5.37333 21.9733L3.92 21.7333C3.50561 21.6654 3.08657 21.6298 2.66667 21.6267C1.93273 21.6538 1.20396 21.7611 0.493333 21.9467C0.435622 21.936 0.37627 21.9382 0.319487 21.953C0.262704 21.9678 0.209881 21.995 0.164767 22.0325C0.119652 22.0701 0.0833503 22.1171 0.0584368 22.1702C0.0335234 22.2233 0.0206086 22.2813 0.0206086 22.34C0.0206086 22.3987 0.0335234 22.4567 0.0584368 22.5098C0.0833503 22.5629 0.119652 22.6099 0.164767 22.6475C0.209881 22.685 0.262704 22.7122 0.319487 22.727C0.37627 22.7418 0.435622 22.744 0.493333 22.7333C1.21333 22.8133 1.82667 22.9733 2.33333 23.0667C2.74866 23.1247 3.16731 23.1559 3.58667 23.16C4.17248 23.1586 4.75702 23.1051 5.33333 23C5.32196 23.4647 5.43227 23.9244 5.65333 24.3333C5.7652 24.5013 5.92917 24.6278 6.12 24.6933C6.64628 24.8612 7.19433 24.9511 7.74667 24.96C8.51908 25.0133 9.29425 25.0133 10.0667 24.96C10.6624 24.9383 11.2514 24.8259 11.8133 24.6267C12.0286 24.4423 12.2009 24.2131 12.3184 23.9551C12.4358 23.6972 12.4955 23.4167 12.4933 23.1333C12.5 23.0268 12.5 22.9199 12.4933 22.8133L14.0133 22.9067C14.1867 22.9067 14.28 23.0667 14.4 23.2133C14.7825 23.8543 15.2539 24.4379 15.8 24.9467C17.0921 25.6804 18.5221 26.1389 20 26.2933C21.4463 26.4953 22.9137 26.4953 24.36 26.2933C25.0063 26.2159 25.6389 26.0499 26.24 25.8C26.6753 25.6128 27.0661 25.3356 27.3867 24.9867C27.7515 24.6238 27.9979 24.159 28.0933 23.6533C28.1133 23.4538 28.1133 23.2528 28.0933 23.0533C28.9628 23.0203 29.8259 22.8906 30.6667 22.6667C30.9972 22.5628 31.2904 22.3651 31.5105 22.0976C31.7307 21.8301 31.8683 21.5043 31.9067 21.16C32.0566 20.2894 31.8604 19.3947 31.36 18.6667C31.3964 18.6413 31.428 18.6097 31.4533 18.5733ZM6.54667 9.69333C6.56315 9.29575 6.60322 8.8995 6.66667 8.50667C6.75536 8.49826 6.84464 8.49826 6.93333 8.50667H10.1333H11.0533C11.1807 9.15214 11.2433 9.80874 11.24 10.4667C9.96827 9.97257 8.59131 9.81192 7.24 10C6.98276 10.0508 6.72894 10.1176 6.48 10.2C6.53333 9.97333 6.54667 9.84 6.54667 9.69333ZM11.3867 21.9067C11.3867 23.3333 11.5467 23.4 9.53333 23.44H6.77333H6.6C6.48069 23.1605 6.4086 22.8631 6.38667 22.56V20.5733C6.90415 20.7782 7.44676 20.9127 8 20.9733C9.11381 21.1389 10.2514 21.0196 11.3067 20.6267C11.3836 21.0487 11.4104 21.4783 11.3867 21.9067ZM30.3733 21.5733C28.7467 22.0533 27 22.28 21.88 21.7333C21.7618 21.7221 21.6438 21.7577 21.5516 21.8325C21.4593 21.9073 21.4001 22.0153 21.3867 22.1333C21.3754 22.248 21.4096 22.3626 21.4819 22.4524C21.5542 22.5421 21.6589 22.5999 21.7733 22.6133C23.541 22.8664 25.3217 23.0177 27.1067 23.0667H27.2C27.2128 23.1952 27.2128 23.3248 27.2 23.4533C27.1056 23.7453 26.9298 24.0044 26.6933 24.2C26.4515 24.4121 26.1707 24.5751 25.8667 24.68C25.3474 24.8389 24.8094 24.9285 24.2667 24.9467C22.9325 25.0513 21.5909 25.0066 20.2667 24.8133C18.9596 24.7032 17.6845 24.3505 16.5067 23.7733C15.84 23.4267 15.4933 22.56 14.96 22.1733C14.7245 21.9941 14.4418 21.8875 14.1467 21.8667H12.5067C12.4826 21.3169 12.3793 20.7736 12.2 20.2533V20.1867C12.3333 20.1067 12.48 20.0533 12.6133 19.96C12.7053 19.8787 12.7611 19.7641 12.7686 19.6416C12.7761 19.5191 12.7347 19.3986 12.6533 19.3067C12.572 19.2147 12.4575 19.1589 12.335 19.1514C12.2124 19.1439 12.0919 19.1853 12 19.2667C10.8652 19.9676 9.49977 20.1928 8.2 19.8933C7.5704 19.8101 6.9681 19.5843 6.43897 19.2331C5.90985 18.8819 5.46786 18.4145 5.14667 17.8667C4.54538 16.617 4.45451 15.1822 4.89333 13.8667C5.05764 13.242 5.39516 12.6765 5.86698 12.2353C6.3388 11.7942 6.9257 11.4953 7.56 11.3733C8.32528 11.2149 9.11513 11.2172 9.87945 11.3802C10.6438 11.5432 11.3659 11.8632 12 12.32C12.5889 12.8737 13.0275 13.568 13.2747 14.3376C13.5219 15.1072 13.5696 15.9269 13.4133 16.72C13.3906 17.0476 13.3233 17.3706 13.2133 17.68C13.1028 17.9884 12.9503 18.28 12.76 18.5467C12.7005 18.6306 12.6756 18.7342 12.6905 18.836C12.7054 18.9378 12.7589 19.03 12.84 19.0933C12.8801 19.1252 12.9262 19.1488 12.9755 19.1627C13.0248 19.1766 13.0764 19.1806 13.1273 19.1744C13.1781 19.1682 13.2273 19.1519 13.2718 19.1266C13.3163 19.1012 13.3554 19.0672 13.3867 19.0267C13.6426 18.713 13.8494 18.3624 14 17.9867C14.1476 17.6134 14.2505 17.2241 14.3067 16.8267C14.5519 15.8724 14.5483 14.8713 14.2962 13.9188C14.0441 12.9664 13.5519 12.0946 12.8667 11.3867C12.6403 11.1813 12.3948 10.9983 12.1333 10.84C12.2069 10.3986 12.2558 9.95348 12.28 9.50667H13.52L14.3333 9.42667C15.2667 9.2 16 7.98667 17 7.37333C17.1801 7.26263 17.3789 7.18581 17.5867 7.14667C19.2019 6.82169 20.8458 6.66087 22.4933 6.66666C24.1428 6.69725 25.7875 6.85326 27.4133 7.13333C27.6657 7.15684 27.9077 7.24535 28.1156 7.39023C28.3236 7.53511 28.4905 7.73141 28.6 7.96C28.781 8.50537 28.781 9.09463 28.6 9.64C27.5307 9.84656 26.4479 9.97578 25.36 10.0267L25.0533 10.12C24.5067 10.2 23.4533 10.72 23.5067 11.1067C23.56 11.4933 24.6 11.7067 25.0133 11.6267C25.4267 11.5467 28.2667 11.5333 28.6 11.4933C30.1333 11.32 30.28 11.72 30.3867 12.3467C30.4753 12.7737 30.4239 13.2179 30.24 13.6133C30.08 13.8933 29.6667 13.9467 29.28 14H28.8C28.1733 14 24.2933 14.2667 24.28 14.6667C24.2667 15.0667 28.28 15.52 29.0133 15.48C29.4317 15.4823 29.8481 15.5361 30.2533 15.64C30.441 15.9352 30.5426 16.2769 30.5467 16.6267C30.5419 16.9939 30.4505 17.3548 30.28 17.68C29.7729 17.8009 29.2545 17.8679 28.7333 17.88C27.8133 17.88 23.72 18.24 23.7333 18.5733C23.7467 18.9067 28.48 19.2533 29.6267 19.1467C29.8867 19.1352 30.1449 19.1952 30.3733 19.32C30.6443 19.68 30.7811 20.1233 30.76 20.5733C30.8 21.0667 30.7333 21.4667 30.3733 21.5733Z" fill="#040E1A"/>
</g>
<defs>
<clipPath id="clip0_94_2330">
<rect width="32" height="32" fill="white"/>
</clipPath>
</defs>
</svg>
