<svg width="27" height="32" viewBox="0 0 27 32" fill="none" xmlns="http://www.w3.org/2000/svg">
<g filter="url(#filter0_d_115_623)">
<path fill-rule="evenodd" clip-rule="evenodd" d="M20.5833 15.2966C20.2365 15.252 19.8841 15.2891 19.5542 15.405C19.4707 15.1403 19.3503 14.8886 19.1967 14.6575C19.0114 14.3812 18.7355 14.1781 18.4167 14.0833C18.0984 14.0022 17.7686 13.9766 17.4417 14.0075L17.1058 14.0725C17.5067 13.0866 18.0917 11.5916 18.5575 10.2916C18.8825 9.39247 19.1425 8.5908 19.2617 8.12497C19.455 7.49772 19.5357 6.84119 19.5 6.1858C19.4467 5.66329 19.2175 5.17438 18.85 4.79913C18.228 4.14559 17.4175 3.70249 16.5317 3.53163C16.0688 3.47536 15.5992 3.53056 15.162 3.69262C14.7248 3.85469 14.3327 4.11893 14.0183 4.4633C13.7046 4.80637 13.4682 5.21273 13.325 5.65497C13.0753 5.17776 12.7009 4.77716 12.2417 4.4958C11.5516 4.12668 10.7515 4.01898 9.98832 4.19247C9.20916 4.33749 8.51518 4.77558 8.04916 5.41663C7.65307 6.00312 7.43487 6.69156 7.42082 7.39913C7.40453 8.0497 7.4998 8.69824 7.70249 9.31663L8.28749 11.7975L8.85082 15.0475C8.85082 15.1233 8.91582 15.5133 8.96999 15.6541C8.98765 15.7382 9.03413 15.8134 9.10139 15.8668C9.16865 15.9202 9.25246 15.9485 9.33832 15.9466C9.82582 15.9466 9.33832 13.1408 9.19749 11.7866C9.19749 11.6025 9.13249 11.1583 9.06749 10.7033C9.00249 10.2483 8.82916 9.32747 8.76416 9.0783C8.64343 8.56024 8.61047 8.0256 8.66666 7.49663C8.68507 7.02751 8.82708 6.57157 9.07832 6.17497C9.3322 5.79152 9.71749 5.51412 10.1617 5.39497C10.6122 5.28415 11.0872 5.33396 11.505 5.5358C11.7943 5.69921 12.0368 5.93423 12.2092 6.2183C12.3977 6.53024 12.5228 6.87628 12.5775 7.23663C12.7108 8.20307 12.794 9.17576 12.8267 10.1508C12.9242 12.3175 12.9025 14.5925 12.9025 14.5925C12.8995 14.6912 12.9352 14.7873 13.002 14.8601C13.0688 14.933 13.1613 14.9769 13.26 14.9825C13.3096 14.987 13.3596 14.9811 13.4068 14.9652C13.454 14.9493 13.4973 14.9236 13.5341 14.89C13.5708 14.8563 13.6001 14.8154 13.62 14.7697C13.64 14.7241 13.6502 14.6748 13.65 14.625C13.65 14.625 13.8017 12.35 13.8125 10.1291C13.8336 9.14587 13.8011 8.16218 13.715 7.18247C13.715 7.04163 13.78 6.88997 13.8233 6.75997C13.9571 6.18029 14.2411 5.64602 14.6467 5.2108C14.8664 5.00645 15.1301 4.85525 15.4174 4.76886C15.7048 4.68246 16.0082 4.66317 16.3042 4.71247C16.9174 4.86505 17.4693 5.20147 17.8858 5.67663C18.1067 5.91922 18.2268 6.23691 18.2217 6.56497C18.1998 7.00656 18.1382 7.44529 18.0375 7.8758C17.8537 8.81957 17.6187 9.75262 17.3333 10.6708C17.3333 10.7683 15.1667 15.3183 16.315 15.405C16.9433 15.405 16.315 14.8525 17.5067 14.885C17.7182 14.8846 17.9279 14.9251 18.1242 15.0041C18.2433 15.0583 18.2758 15.1883 18.33 15.3183C18.4097 15.4963 18.4574 15.687 18.4708 15.8816C18.479 16.0994 18.5007 16.3165 18.5358 16.5316C18.5859 16.6648 18.6769 16.7786 18.7958 16.8566C18.9009 16.9186 19.0206 16.9512 19.1425 16.9512C19.2644 16.9512 19.3841 16.9186 19.4892 16.8566C19.605 16.7427 19.745 16.6563 19.8988 16.6038C20.0525 16.5512 20.2161 16.534 20.3775 16.5533C20.5135 16.5705 20.6415 16.6269 20.7458 16.7158C20.8 16.77 20.8 16.8783 20.8217 16.9975C20.8778 17.3084 20.9032 17.6241 20.8975 17.94C20.8959 18.5165 20.8524 19.0922 20.7675 19.6625C20.7015 20.1317 20.6001 20.5952 20.4642 21.0491C20.3823 21.3315 20.2697 21.6039 20.1283 21.8616C20.097 21.9009 20.074 21.9461 20.0609 21.9946C20.0477 22.0431 20.0445 22.0937 20.0516 22.1434C20.0587 22.1931 20.0759 22.2409 20.1022 22.2837C20.1284 22.3265 20.1631 22.3635 20.2042 22.3925C20.2438 22.4215 20.2888 22.4423 20.3366 22.4537C20.3844 22.4651 20.434 22.4668 20.4824 22.4587C20.5309 22.4506 20.5772 22.4329 20.6187 22.4067C20.6602 22.3804 20.6961 22.3461 20.7242 22.3058C20.9455 22.011 21.1243 21.6864 21.255 21.3416C21.453 20.8593 21.6159 20.3633 21.7425 19.8575C21.9809 18.9927 22.1047 18.1003 22.1108 17.2033C22.1241 16.6729 21.9342 16.1575 21.58 15.7625C21.3034 15.5087 20.9554 15.3461 20.5833 15.2966Z" fill="#C98D34" stroke="#C98D34"/>
<path fill-rule="evenodd" clip-rule="evenodd" d="M8.05999 20.8325C7.5449 20.1563 7.09852 19.4305 6.72749 18.6658C6.37844 17.8673 6.15551 17.0194 6.06666 16.1525C6.01869 15.9199 6.02094 15.6797 6.07325 15.448C6.12556 15.2164 6.22673 14.9985 6.36999 14.8091C6.53959 14.6173 6.77587 14.4972 7.03083 14.4733C7.32619 14.4616 7.61893 14.5329 7.87583 14.6791C7.95087 14.7238 8.04035 14.7374 8.12529 14.7172C8.21023 14.697 8.28395 14.6445 8.33083 14.5708C8.35436 14.534 8.37025 14.4929 8.37754 14.4499C8.38484 14.4068 8.38338 14.3628 8.37327 14.3203C8.36316 14.2778 8.3446 14.2378 8.31869 14.2027C8.29279 14.1676 8.26007 14.138 8.22249 14.1158C7.87649 13.8541 7.46318 13.6963 7.03083 13.6608C6.55258 13.6285 6.07997 13.7795 5.70916 14.0833C5.39707 14.3458 5.15324 14.68 4.99854 15.0574C4.84383 15.4347 4.78285 15.8439 4.82083 16.25C4.90612 17.2742 5.18166 18.2735 5.63333 19.1966C6.11513 19.976 6.67798 20.7023 7.31249 21.3633C7.49902 21.6286 7.63491 21.9261 7.71333 22.2408C7.72243 22.2899 7.74117 22.3368 7.76845 22.3787C7.79574 22.4206 7.83104 22.4567 7.87232 22.4848C7.9136 22.513 7.96004 22.5328 8.00899 22.543C8.05793 22.5531 8.1084 22.5535 8.15749 22.5441C8.20593 22.5365 8.25226 22.5189 8.29363 22.4926C8.33499 22.4662 8.37049 22.4317 8.39793 22.391C8.42536 22.3504 8.44414 22.3045 8.4531 22.2563C8.46205 22.2081 8.461 22.1586 8.44999 22.1108C8.41318 21.6616 8.28017 21.2257 8.05999 20.8325Z" fill="#C98D34" stroke="#C98D34"/>
</g>
<defs>
<filter id="filter0_d_115_623" x="0.30986" y="3.01025" width="26.3016" height="28.0406" filterUnits="userSpaceOnUse" color-interpolation-filters="sRGB">
<feFlood flood-opacity="0" result="BackgroundImageFix"/>
<feColorMatrix in="SourceAlpha" type="matrix" values="0 0 0 0 0 0 0 0 0 0 0 0 0 0 0 0 0 0 127 0" result="hardAlpha"/>
<feOffset dy="4"/>
<feGaussianBlur stdDeviation="2"/>
<feComposite in2="hardAlpha" operator="out"/>
<feColorMatrix type="matrix" values="0 0 0 0 0 0 0 0 0 0 0 0 0 0 0 0 0 0 0.25 0"/>
<feBlend mode="normal" in2="BackgroundImageFix" result="effect1_dropShadow_115_623"/>
<feBlend mode="normal" in="SourceGraphic" in2="effect1_dropShadow_115_623" result="shape"/>
</filter>
</defs>
</svg>
