<svg width="146" height="6" viewBox="0 0 146 6" fill="none" xmlns="http://www.w3.org/2000/svg">
<path d="M4.25413 1.64029C8.25375 1.63533 12.2993 1.70372 16.3495 1.84477L35.3766 2.50921C41.6443 2.72808 50.3701 3.15385 57.7571 3.41181C68.9495 3.80265 80.1461 4.0726 91.3402 4.41508C102.534 4.75756 114.98 4.56269 126.961 4.8358C131.806 4.92025 136.672 5.09017 141.511 5.3439C142.5 5.40712 143.505 5.38801 144.321 5.29049C145.136 5.19297 145.701 5.02441 145.899 4.81926C145.982 4.7139 145.965 4.6027 145.847 4.49218C145.73 4.38165 145.515 4.27404 145.216 4.17564C144.917 4.07724 144.539 3.99004 144.105 3.91915C143.67 3.84827 143.188 3.79512 142.687 3.76284C137.587 3.40345 132.424 3.13406 127.25 2.95747C127.25 2.95747 64.456 0.909912 63.4487 0.874736C53.9352 0.542516 44.5243 0.480199 35.1168 0.321157C28.7329 0.219282 22.2388 0.065136 15.8532 0.0116231C11.4318 -0.0199816 7.05068 0.0130502 2.7387 0.110503C2.27856 0.113858 1.84157 0.138588 1.45576 0.183109C1.06995 0.227629 0.743852 0.290954 0.49842 0.369019C0.252987 0.447084 0.0936315 0.538163 0.0305924 0.636408C-0.0324466 0.734653 0.00222368 0.837895 0.13237 0.939502C0.22055 1.03929 0.399069 1.13717 0.657033 1.22719C0.914996 1.3172 1.24699 1.39745 1.63273 1.46304C2.01847 1.52862 2.44988 1.57816 2.90058 1.60864C3.35129 1.63911 3.81185 1.64988 4.25413 1.64029Z" fill="#C98D34"/>
</svg>
