<svg width="174" height="9" viewBox="0 0 174 9" fill="none" xmlns="http://www.w3.org/2000/svg">
<path d="M5.10473 8.92877C9.86829 8.49515 14.6897 8.27665 19.5195 8.27548H42.2094C49.6837 8.27548 60.0944 8.63842 68.9034 8.63842C82.2504 8.63842 95.5974 8.27548 108.944 8.1303C122.291 7.98513 137.107 6.09783 151.388 5.6623C157.162 5.40821 162.965 5.40821 168.739 5.6623C169.92 5.74827 171.116 5.58576 172.083 5.20797C173.051 4.83018 173.717 4.26566 173.944 3.62982C174.039 3.30526 174.013 2.97372 173.869 2.65464C173.724 2.33556 173.464 2.03538 173.104 1.77169C172.743 1.50801 172.289 1.28613 171.769 1.11908C171.249 0.952031 170.672 0.843163 170.074 0.798873C163.985 0.255233 157.825 -0.0118441 151.655 0.000402745C151.655 0.000402745 76.7781 0.435936 75.5769 0.435936C64.2319 0.435936 53.0205 1.2344 41.809 1.74252C34.2012 2.10546 26.4599 2.32323 18.8521 2.83135C13.5847 3.19951 8.36789 3.75724 3.23614 4.50088C2.68823 4.55911 2.16878 4.67902 1.71111 4.85289C1.25344 5.02676 0.867673 5.25076 0.578596 5.51051C0.289519 5.77026 0.103506 6.06001 0.0325095 6.36117C-0.0384872 6.66233 0.00710108 6.96823 0.166339 7.25924C0.275516 7.54918 0.492214 7.82398 0.803206 8.06684C1.1142 8.30971 1.51296 8.51555 1.97512 8.6718C2.43729 8.82804 2.95318 8.93141 3.49126 8.9756C4.02935 9.01978 4.57834 9.00385 5.10473 8.92877Z" fill="#C98D34"/>
</svg>
